<svg height="660" width="660"
    xmlns="http://www.w3.org/2000/svg"
    xmlns:xlink="http://www.w3.org/1999/xlink"
    xmlns:ev="http://www.w3.org/2001/xml-events">
<title>Original Bottom Strand</title>
<rect x="0" y="0" width="660" height="660" fill="white" />
<text x="330" y="20" text-anchor="middle">Original Bottom Strand ABLG-47625_cpg_OB.svg genome_hic_scaffold_1_RagTag CpG</text>
<line x1="80" y1="80" x2="80" y2="580" stroke="black" />
<line x1="80" y1="580" x2="580" y2="580" stroke="black" />
<text x="15" y="330" transform="rotate(270 15, 330)" text-anchor="middle" dominant-baseline="text-before-edge">CpG Methylation %</text>
<text x="330" y="620" text-anchor="middle">Position along mapped read (5'->3' of + strand)</text>
<line x1="80" y1="580" x2="80" y2="585" stroke="black" />
<text x="80" y="600" text-anchor="middle">0</text>
<line x1="112.258065" y1="80" x2="112.258065" y2="580" stroke-dasharray="5 5" stroke="grey" />
<line x1="112.258065" y1="580" x2="112.258065" y2="585" stroke="black" />
<text x="112.258065" y="600" text-anchor="middle">10</text>
<line x1="144.516129" y1="80" x2="144.516129" y2="580" stroke-dasharray="5 5" stroke="grey" />
<line x1="144.516129" y1="580" x2="144.516129" y2="585" stroke="black" />
<text x="144.516129" y="600" text-anchor="middle">20</text>
<line x1="176.774194" y1="80" x2="176.774194" y2="580" stroke-dasharray="5 5" stroke="grey" />
<line x1="176.774194" y1="580" x2="176.774194" y2="585" stroke="black" />
<text x="176.774194" y="600" text-anchor="middle">30</text>
<line x1="209.032258" y1="80" x2="209.032258" y2="580" stroke-dasharray="5 5" stroke="grey" />
<line x1="209.032258" y1="580" x2="209.032258" y2="585" stroke="black" />
<text x="209.032258" y="600" text-anchor="middle">40</text>
<line x1="241.290323" y1="80" x2="241.290323" y2="580" stroke-dasharray="5 5" stroke="grey" />
<line x1="241.290323" y1="580" x2="241.290323" y2="585" stroke="black" />
<text x="241.290323" y="600" text-anchor="middle">50</text>
<line x1="273.548387" y1="80" x2="273.548387" y2="580" stroke-dasharray="5 5" stroke="grey" />
<line x1="273.548387" y1="580" x2="273.548387" y2="585" stroke="black" />
<text x="273.548387" y="600" text-anchor="middle">60</text>
<line x1="305.806452" y1="80" x2="305.806452" y2="580" stroke-dasharray="5 5" stroke="grey" />
<line x1="305.806452" y1="580" x2="305.806452" y2="585" stroke="black" />
<text x="305.806452" y="600" text-anchor="middle">70</text>
<line x1="338.064516" y1="80" x2="338.064516" y2="580" stroke-dasharray="5 5" stroke="grey" />
<line x1="338.064516" y1="580" x2="338.064516" y2="585" stroke="black" />
<text x="338.064516" y="600" text-anchor="middle">80</text>
<line x1="370.322581" y1="80" x2="370.322581" y2="580" stroke-dasharray="5 5" stroke="grey" />
<line x1="370.322581" y1="580" x2="370.322581" y2="585" stroke="black" />
<text x="370.322581" y="600" text-anchor="middle">90</text>
<line x1="402.580645" y1="80" x2="402.580645" y2="580" stroke-dasharray="5 5" stroke="grey" />
<line x1="402.580645" y1="580" x2="402.580645" y2="585" stroke="black" />
<text x="402.580645" y="600" text-anchor="middle">100</text>
<line x1="434.838710" y1="80" x2="434.838710" y2="580" stroke-dasharray="5 5" stroke="grey" />
<line x1="434.838710" y1="580" x2="434.838710" y2="585" stroke="black" />
<text x="434.838710" y="600" text-anchor="middle">110</text>
<line x1="467.096774" y1="80" x2="467.096774" y2="580" stroke-dasharray="5 5" stroke="grey" />
<line x1="467.096774" y1="580" x2="467.096774" y2="585" stroke="black" />
<text x="467.096774" y="600" text-anchor="middle">120</text>
<line x1="499.354839" y1="80" x2="499.354839" y2="580" stroke-dasharray="5 5" stroke="grey" />
<line x1="499.354839" y1="580" x2="499.354839" y2="585" stroke="black" />
<text x="499.354839" y="600" text-anchor="middle">130</text>
<line x1="531.612903" y1="80" x2="531.612903" y2="580" stroke-dasharray="5 5" stroke="grey" />
<line x1="531.612903" y1="580" x2="531.612903" y2="585" stroke="black" />
<text x="531.612903" y="600" text-anchor="middle">140</text>
<line x1="563.870968" y1="80" x2="563.870968" y2="580" stroke-dasharray="5 5" stroke="grey" />
<line x1="563.870968" y1="580" x2="563.870968" y2="585" stroke="black" />
<text x="563.870968" y="600" text-anchor="middle">150</text>
<line x1="80" y1="580.000000" x2="75" y2="580.000000" stroke="black" />
<text x="55" y="580.000000" text-anchor="middle" dominant-baseline="middle">0.00</text>
<line x1="80" y1="555.000000" x2="75" y2="555.000000" stroke="black" />
<text x="55" y="555.000000" text-anchor="middle" dominant-baseline="middle">0.05</text>
<line x1="80" y1="530.000000" x2="75" y2="530.000000" stroke="black" />
<text x="55" y="530.000000" text-anchor="middle" dominant-baseline="middle">0.10</text>
<line x1="80" y1="505.000000" x2="75" y2="505.000000" stroke="black" />
<text x="55" y="505.000000" text-anchor="middle" dominant-baseline="middle">0.15</text>
<line x1="80" y1="480.000000" x2="75" y2="480.000000" stroke="black" />
<text x="55" y="480.000000" text-anchor="middle" dominant-baseline="middle">0.20</text>
<line x1="80" y1="455.000000" x2="75" y2="455.000000" stroke="black" />
<text x="55" y="455.000000" text-anchor="middle" dominant-baseline="middle">0.25</text>
<line x1="80" y1="430.000000" x2="75" y2="430.000000" stroke="black" />
<text x="55" y="430.000000" text-anchor="middle" dominant-baseline="middle">0.30</text>
<line x1="80" y1="405.000000" x2="75" y2="405.000000" stroke="black" />
<text x="55" y="405.000000" text-anchor="middle" dominant-baseline="middle">0.35</text>
<line x1="80" y1="380.000000" x2="75" y2="380.000000" stroke="black" />
<text x="55" y="380.000000" text-anchor="middle" dominant-baseline="middle">0.40</text>
<line x1="80" y1="355.000000" x2="75" y2="355.000000" stroke="black" />
<text x="55" y="355.000000" text-anchor="middle" dominant-baseline="middle">0.45</text>
<line x1="80" y1="330.000000" x2="75" y2="330.000000" stroke="black" />
<text x="55" y="330.000000" text-anchor="middle" dominant-baseline="middle">0.50</text>
<line x1="80" y1="305.000000" x2="75" y2="305.000000" stroke="black" />
<text x="55" y="305.000000" text-anchor="middle" dominant-baseline="middle">0.55</text>
<line x1="80" y1="280.000000" x2="75" y2="280.000000" stroke="black" />
<text x="55" y="280.000000" text-anchor="middle" dominant-baseline="middle">0.60</text>
<line x1="80" y1="255.000000" x2="75" y2="255.000000" stroke="black" />
<text x="55" y="255.000000" text-anchor="middle" dominant-baseline="middle">0.65</text>
<line x1="80" y1="230.000000" x2="75" y2="230.000000" stroke="black" />
<text x="55" y="230.000000" text-anchor="middle" dominant-baseline="middle">0.70</text>
<line x1="80" y1="205.000000" x2="75" y2="205.000000" stroke="black" />
<text x="55" y="205.000000" text-anchor="middle" dominant-baseline="middle">0.75</text>
<line x1="80" y1="180.000000" x2="75" y2="180.000000" stroke="black" />
<text x="55" y="180.000000" text-anchor="middle" dominant-baseline="middle">0.80</text>
<line x1="80" y1="155.000000" x2="75" y2="155.000000" stroke="black" />
<text x="55" y="155.000000" text-anchor="middle" dominant-baseline="middle">0.85</text>
<line x1="80" y1="130.000000" x2="75" y2="130.000000" stroke="black" />
<text x="55" y="130.000000" text-anchor="middle" dominant-baseline="middle">0.90</text>
<line x1="80" y1="105.000000" x2="75" y2="105.000000" stroke="black" />
<text x="55" y="105.000000" text-anchor="middle" dominant-baseline="middle">0.95</text>
<line x1="80" y1="80.000000" x2="75" y2="80.000000" stroke="black" />
<text x="55" y="80.000000" text-anchor="middle" dominant-baseline="middle">1.00</text>
<path d="M 83.225806 543.634061
  L 86.451613 545.071006
  L 89.677419 507.960771
  L 92.903226 580.000000
  L 96.129032 517.897883
  L 99.354839 491.957397
  L 102.580645 491.715334
  L 105.806452 465.362896
  L 109.032258 491.715334
  L 112.258065 530.537122
  L 115.483871 411.021668
  L 118.709677 530.537122
  L 121.935484 568.724720
  L 125.161290 559.685352
  L 128.387097 465.362896
  L 131.612903 491.957397
  L 134.838710 507.960771
  L 138.064516 491.715334
  L 141.290323 491.715334
  L 144.516129 445.730035
  L 147.741935 517.897883
  L 150.967742 430.031773
  L 154.193548 468.271713
  L 157.419355 479.983518
  L 160.645161 494.438772
  L 163.870968 517.897883
  L 167.096774 468.271713
  L 170.322581 543.634061
  L 173.548387 462.145213
  L 176.774194 559.685352
  L 180.000000 479.983518
  L 183.225806 479.983518
  L 186.451613 447.210271
  L 189.677419 507.960771
  L 192.903226 559.685352
  L 196.129032 559.685352
  L 199.354839 532.565067
  L 202.580645 499.402547
  L 205.806452 532.565067
  L 209.032258 532.565067
  L 212.258065 411.021668
  L 215.483871 507.960771
  L 218.709677 430.031773
  L 221.935484 428.217022
  L 225.161290 446.895785
  L 228.387097 499.402547
  L 231.612903 517.897883
  L 234.838710 447.210271
  L 238.064516 547.204569
  L 241.290323 517.897883
  L 244.516129 411.021668
  L 247.741935 543.634061
  L 250.967742 462.145213
  L 254.193548 507.960771
  L 257.419355 559.685352
  L 260.645161 381.137127
  L 263.870968 507.960771
  L 267.096774 468.271713
  L 270.322581 568.724720
  L 273.548387 507.960771
  L 276.774194 430.031773
  L 280.000000 491.957397
  L 283.225806 517.897883
  L 286.451613 499.402547
  L 289.677419 517.897883
  L 292.903226 485.641156
  L 296.129032 446.895785
  L 299.354839 479.983518
  L 302.580645 517.897883
  L 305.806452 491.715334
  L 309.032258 547.204569
  L 312.258065 520.566814
  L 315.483871 517.897883
  L 318.709677 491.715334
  L 321.935484 468.271713
  L 325.161290 462.145213
  L 328.387097 507.960771
  L 331.612903 468.271713
  L 334.838710 428.217022
  L 338.064516 520.566814
  L 341.290323 507.960771
  L 344.516129 485.641156
  L 347.741935 499.402547
  L 350.967742 465.362896
  L 354.193548 507.960771
  L 357.419355 491.715334
  L 360.645161 485.641156
  L 363.870968 491.715334
  L 367.096774 447.210271
  L 370.322581 428.217022
  L 373.548387 465.362896
  L 376.774194 468.271713
  L 380.000000 532.565067
  L 383.225806 580.000000
  L 386.451613 491.715334
  L 389.677419 465.362896
  L 392.903226 446.895785
  L 396.129032 507.960771
  L 399.354839 520.566814
  L 402.580645 520.566814
  L 405.806452 428.217022
  L 409.032258 468.271713
  L 412.258065 507.960771
  L 415.483871 507.960771
  L 418.709677 538.548077
  L 421.935484 465.362896
  L 425.161290 428.217022
  L 428.387097 580.000000
  L 431.612903 447.210271
  L 434.838710 485.641156
  L 438.064516 517.897883
  L 441.290323 428.217022
  L 444.516129 491.715334
  L 447.741935 491.715334
  L 450.967742 532.565067
  L 454.193548 543.634061
  L 457.419355 491.715334
  L 460.645161 485.641156
  L 463.870968 479.983518
  L 467.096774 507.960771
  L 470.322581 414.586934
  L 473.548387 517.897883
  L 476.774194 559.685352
  L 480.000000 485.641156
  L 483.225806 547.204569
  L 486.451613 517.897883
  L 489.677419 446.895785
  L 492.903226 517.897883
  L 496.129032 520.566814
  L 499.354839 532.565067
  L 502.580645 479.983518
  L 505.806452 491.715334
  L 509.032258 517.897883
  L 512.258065 559.685352
  L 515.483871 552.157268
  L 518.709677 532.565067
  L 525.161290 491.715334
  L 528.387097 559.685352
  L 531.612903 485.641156
  L 534.838710 491.715334
  L 538.064516 447.210271
  L 541.290323 547.204569
  L 544.516129 485.641156
  L 547.741935 507.960771
  L 550.967742 507.960771
  L 554.193548 547.204569
  L 557.419355 468.271713
  L 563.870968 491.715334
  L 567.096774 547.204569
  L 567.096774 80.000000
  L 563.870968 80.000000
  L 557.419355 80.000000
  L 554.193548 80.000000
  L 550.967742 84.597277
  L 547.741935 84.597277
  L 544.516129 80.000000
  L 541.290323 80.000000
  L 538.064516 80.000000
  L 534.838710 80.000000
  L 531.612903 80.000000
  L 528.387097 100.314648
  L 525.161290 80.000000
  L 518.709677 91.275280
  L 515.483871 139.433186
  L 512.258065 100.314648
  L 509.032258 80.000000
  L 505.806452 80.000000
  L 502.580645 95.877122
  L 499.354839 91.275280
  L 496.129032 107.842732
  L 492.903226 80.000000
  L 489.677419 80.000000
  L 486.451613 80.000000
  L 483.225806 80.000000
  L 480.000000 80.000000
  L 476.774194 100.314648
  L 473.548387 80.000000
  L 470.322581 80.000000
  L 467.096774 84.597277
  L 463.870968 95.877122
  L 460.645161 80.000000
  L 457.419355 80.000000
  L 454.193548 116.365939
  L 450.967742 91.275280
  L 447.741935 80.000000
  L 444.516129 80.000000
  L 441.290323 80.000000
  L 438.064516 80.000000
  L 434.838710 80.000000
  L 431.612903 80.000000
  L 428.387097 142.102117
  L 425.161290 80.000000
  L 421.935484 80.000000
  L 418.709677 149.498376
  L 415.483871 84.597277
  L 412.258065 84.597277
  L 409.032258 80.000000
  L 405.806452 80.000000
  L 402.580645 107.842732
  L 399.354839 107.842732
  L 396.129032 84.597277
  L 392.903226 80.000000
  L 389.677419 80.000000
  L 386.451613 80.000000
  L 383.225806 112.795431
  L 380.000000 91.275280
  L 376.774194 80.000000
  L 373.548387 80.000000
  L 370.322581 80.000000
  L 367.096774 80.000000
  L 363.870968 80.000000
  L 360.645161 80.000000
  L 357.419355 80.000000
  L 354.193548 84.597277
  L 350.967742 80.000000
  L 347.741935 101.171153
  L 344.516129 80.000000
  L 341.290323 84.597277
  L 338.064516 107.842732
  L 334.838710 80.000000
  L 331.612903 80.000000
  L 328.387097 84.597277
  L 325.161290 91.627568
  L 321.935484 80.000000
  L 318.709677 80.000000
  L 315.483871 80.000000
  L 312.258065 107.842732
  L 309.032258 80.000000
  L 305.806452 80.000000
  L 302.580645 80.000000
  L 299.354839 95.877122
  L 296.129032 80.000000
  L 292.903226 80.000000
  L 289.677419 80.000000
  L 286.451613 101.171153
  L 283.225806 80.000000
  L 280.000000 114.928994
  L 276.774194 80.000000
  L 273.548387 84.597277
  L 270.322581 127.434933
  L 267.096774 80.000000
  L 263.870968 84.597277
  L 260.645161 80.000000
  L 257.419355 100.314648
  L 254.193548 84.597277
  L 250.967742 91.627568
  L 247.741935 116.365939
  L 244.516129 80.000000
  L 241.290323 80.000000
  L 238.064516 80.000000
  L 234.838710 80.000000
  L 231.612903 80.000000
  L 228.387097 101.171153
  L 225.161290 80.000000
  L 221.935484 80.000000
  L 218.709677 80.000000
  L 215.483871 84.597277
  L 212.258065 80.000000
  L 209.032258 91.275280
  L 205.806452 91.275280
  L 202.580645 101.171153
  L 199.354839 91.275280
  L 196.129032 100.314648
  L 192.903226 100.314648
  L 189.677419 84.597277
  L 186.451613 80.000000
  L 183.225806 95.877122
  L 180.000000 95.877122
  L 176.774194 100.314648
  L 173.548387 91.627568
  L 170.322581 116.365939
  L 167.096774 80.000000
  L 163.870968 80.000000
  L 160.645161 142.654414
  L 157.419355 95.877122
  L 154.193548 80.000000
  L 150.967742 80.000000
  L 147.741935 80.000000
  L 144.516129 88.182881
  L 141.290323 80.000000
  L 138.064516 80.000000
  L 134.838710 84.597277
  L 131.612903 114.928994
  L 128.387097 80.000000
  L 125.161290 100.314648
  L 121.935484 127.434933
  L 118.709677 129.462878
  L 115.483871 80.000000
  L 112.258065 129.462878
  L 109.032258 80.000000
  L 105.806452 80.000000
  L 102.580645 80.000000
  L 99.354839 114.928994
  L 96.129032 80.000000
  L 92.903226 213.104215
  L 89.677419 84.597277
  L 86.451613 168.042603
  L 83.225806 116.365939
Z" fill="rgb(248,118,109)" fill-opacity="0.2"/>
<path d="M 83.225806 580.000000
  L 86.451613 580.000000
  L 89.677419 491.715334
  L 92.903226 580.000000
  L 96.129032 462.145213
  L 99.354839 568.724720
  L 102.580645 517.897883
  L 105.806452 568.724720
  L 109.032258 381.137127
  L 112.258065 568.724720
  L 115.483871 446.895785
  L 118.709677 520.566814
  L 121.935484 580.000000
  L 125.161290 507.960771
  L 128.387097 520.566814
  L 131.612903 479.983518
  L 134.838710 559.685352
  L 138.064516 532.565067
  L 141.290323 465.362896
  L 144.516129 446.895785
  L 147.741935 520.566814
  L 150.967742 485.414880
  L 154.193548 520.566814
  L 157.419355 499.402547
  L 160.645161 538.548077
  L 163.870968 547.204569
  L 167.096774 491.715334
  L 170.322581 499.402547
  L 173.548387 462.145213
  L 176.774194 559.685352
  L 180.000000 499.402547
  L 183.225806 445.730035
  L 186.451613 485.641156
  L 189.677419 530.537122
  L 192.903226 507.960771
  L 196.129032 485.641156
  L 199.354839 485.641156
  L 202.580645 485.641156
  L 205.806452 499.402547
  L 209.032258 507.960771
  L 212.258065 462.145213
  L 215.483871 532.565067
  L 218.709677 517.897883
  L 221.935484 428.217022
  L 225.161290 507.960771
  L 228.387097 485.641156
  L 231.612903 547.204569
  L 234.838710 552.157268
  L 238.064516 491.715334
  L 241.290323 517.897883
  L 244.516129 468.271713
  L 247.741935 499.402547
  L 250.967742 446.895785
  L 254.193548 568.724720
  L 257.419355 485.641156
  L 260.645161 485.641156
  L 263.870968 559.685352
  L 267.096774 517.897883
  L 270.322581 543.634061
  L 273.548387 543.634061
  L 276.774194 517.897883
  L 280.000000 479.983518
  L 283.225806 547.204569
  L 286.451613 430.592952
  L 289.677419 485.641156
  L 292.903226 430.592952
  L 296.129032 380.418085
  L 299.354839 447.210271
  L 302.580645 446.895785
  L 305.806452 491.715334
  L 309.032258 517.897883
  L 312.258065 485.641156
  L 318.709677 532.565067
  L 321.935484 547.204569
  L 325.161290 485.641156
  L 328.387097 517.897883
  L 331.612903 411.021668
  L 334.838710 485.641156
  L 338.064516 491.715334
  L 341.290323 491.715334
  L 344.516129 517.897883
  L 347.741935 507.960771
  L 350.967742 468.271713
  L 354.193548 447.210271
  L 357.419355 428.217022
  L 360.645161 532.565067
  L 363.870968 465.362896
  L 367.096774 532.565067
  L 370.322581 485.641156
  L 373.548387 428.217022
  L 376.774194 468.271713
  L 380.000000 559.685352
  L 383.225806 485.641156
  L 386.451613 507.960771
  L 389.677419 465.362896
  L 392.903226 485.641156
  L 396.129032 499.402547
  L 399.354839 491.715334
  L 402.580645 510.501624
  L 405.806452 447.210271
  L 409.032258 510.501624
  L 412.258065 532.565067
  L 415.483871 468.271713
  L 418.709677 532.565067
  L 421.935484 485.641156
  L 425.161290 517.897883
  L 428.387097 507.960771
  L 431.612903 428.217022
  L 434.838710 507.960771
  L 438.064516 491.715334
  L 441.290323 462.145213
  L 444.516129 491.715334
  L 447.741935 547.204569
  L 450.967742 543.634061
  L 454.193548 532.565067
  L 457.419355 517.897883
  L 460.645161 468.271713
  L 463.870968 559.685352
  L 467.096774 411.021668
  L 470.322581 468.271713
  L 473.548387 447.210271
  L 476.774194 532.565067
  L 480.000000 491.715334
  L 483.225806 547.204569
  L 486.451613 468.271713
  L 489.677419 468.271713
  L 492.903226 517.897883
  L 496.129032 517.897883
  L 502.580645 465.362896
  L 505.806452 547.204569
  L 509.032258 507.960771
  L 512.258065 491.715334
  L 515.483871 468.271713
  L 518.709677 547.204569
  L 521.935484 446.895785
  L 525.161290 468.271713
  L 528.387097 547.204569
  L 531.612903 532.565067
  L 534.838710 468.271713
  L 538.064516 485.641156
  L 541.290323 559.685352
  L 544.516129 517.897883
  L 547.741935 517.897883
  L 550.967742 568.724720
  L 554.193548 532.565067
  L 557.419355 468.271713
  L 560.645161 517.897883
  L 567.096774 491.715334
  L 567.096774 80.000000
  L 560.645161 80.000000
  L 557.419355 80.000000
  L 554.193548 91.275280
  L 550.967742 127.434933
  L 547.741935 80.000000
  L 544.516129 80.000000
  L 541.290323 100.314648
  L 538.064516 80.000000
  L 534.838710 80.000000
  L 531.612903 91.275280
  L 528.387097 80.000000
  L 525.161290 80.000000
  L 521.935484 80.000000
  L 518.709677 80.000000
  L 515.483871 80.000000
  L 512.258065 80.000000
  L 509.032258 84.597277
  L 505.806452 80.000000
  L 502.580645 80.000000
  L 496.129032 80.000000
  L 492.903226 80.000000
  L 489.677419 80.000000
  L 486.451613 80.000000
  L 483.225806 80.000000
  L 480.000000 80.000000
  L 476.774194 91.275280
  L 473.548387 80.000000
  L 470.322581 80.000000
  L 467.096774 80.000000
  L 463.870968 100.314648
  L 460.645161 80.000000
  L 457.419355 80.000000
  L 454.193548 91.275280
  L 450.967742 116.365939
  L 447.741935 80.000000
  L 444.516129 80.000000
  L 441.290323 91.627568
  L 438.064516 80.000000
  L 434.838710 84.597277
  L 431.612903 80.000000
  L 428.387097 84.597277
  L 425.161290 80.000000
  L 421.935484 80.000000
  L 418.709677 91.275280
  L 415.483871 80.000000
  L 412.258065 91.275280
  L 409.032258 121.451923
  L 405.806452 80.000000
  L 402.580645 121.451923
  L 399.354839 80.000000
  L 396.129032 101.171153
  L 392.903226 80.000000
  L 389.677419 80.000000
  L 386.451613 84.597277
  L 383.225806 80.000000
  L 380.000000 100.314648
  L 376.774194 80.000000
  L 373.548387 80.000000
  L 370.322581 80.000000
  L 367.096774 91.275280
  L 363.870968 80.000000
  L 360.645161 91.275280
  L 357.419355 80.000000
  L 354.193548 80.000000
  L 350.967742 80.000000
  L 347.741935 84.597277
  L 344.516129 80.000000
  L 341.290323 80.000000
  L 338.064516 80.000000
  L 334.838710 80.000000
  L 331.612903 80.000000
  L 328.387097 80.000000
  L 325.161290 80.000000
  L 321.935484 80.000000
  L 318.709677 91.275280
  L 312.258065 80.000000
  L 309.032258 80.000000
  L 305.806452 80.000000
  L 302.580645 80.000000
  L 299.354839 80.000000
  L 296.129032 80.000000
  L 292.903226 85.367175
  L 289.677419 80.000000
  L 286.451613 85.367175
  L 283.225806 80.000000
  L 280.000000 95.877122
  L 276.774194 80.000000
  L 273.548387 116.365939
  L 270.322581 116.365939
  L 267.096774 80.000000
  L 263.870968 100.314648
  L 260.645161 80.000000
  L 257.419355 80.000000
  L 254.193548 127.434933
  L 250.967742 80.000000
  L 247.741935 101.171153
  L 244.516129 80.000000
  L 241.290323 80.000000
  L 238.064516 80.000000
  L 234.838710 139.433186
  L 231.612903 80.000000
  L 228.387097 80.000000
  L 225.161290 84.597277
  L 221.935484 80.000000
  L 218.709677 80.000000
  L 215.483871 91.275280
  L 212.258065 91.627568
  L 209.032258 84.597277
  L 205.806452 101.171153
  L 202.580645 80.000000
  L 199.354839 80.000000
  L 196.129032 80.000000
  L 192.903226 84.597277
  L 189.677419 129.462878
  L 186.451613 80.000000
  L 183.225806 88.182881
  L 180.000000 101.171153
  L 176.774194 100.314648
  L 173.548387 91.627568
  L 170.322581 101.171153
  L 167.096774 80.000000
  L 163.870968 80.000000
  L 160.645161 149.498376
  L 157.419355 101.171153
  L 154.193548 107.842732
  L 150.967742 126.571829
  L 147.741935 107.842732
  L 144.516129 80.000000
  L 141.290323 80.000000
  L 138.064516 91.275280
  L 134.838710 100.314648
  L 131.612903 95.877122
  L 128.387097 107.842732
  L 125.161290 84.597277
  L 121.935484 112.795431
  L 118.709677 107.842732
  L 115.483871 80.000000
  L 112.258065 127.434933
  L 109.032258 80.000000
  L 105.806452 127.434933
  L 102.580645 80.000000
  L 99.354839 127.434933
  L 96.129032 91.627568
  L 92.903226 191.728287
  L 89.677419 80.000000
  L 86.451613 264.606302
  L 83.225806 272.667792
Z" fill="rgb(0,191,196)" fill-opacity="0.2"/>
<path d="M 83.225806 330.000000
  L 86.451613 392.500000
  L 89.677419 205.000000
  L 92.903226 508.571429
  L 96.129032 80.000000
  L 99.354839 267.500000
  L 102.580645 80.000000
  L 105.806452 163.333333
  L 109.032258 80.000000
  L 112.258065 330.000000
  L 115.483871 80.000000
  L 118.709677 330.000000
  L 121.935484 413.333333
  L 125.161290 330.000000
  L 128.387097 163.333333
  L 131.612903 267.500000
  L 134.838710 205.000000
  L 138.064516 80.000000
  L 141.290323 80.000000
  L 144.516129 191.111111
  L 147.741935 80.000000
  L 150.967742 142.500000
  L 154.193548 80.000000
  L 157.419355 222.857143
  L 160.645161 307.272727
  L 163.870968 80.000000
  L 167.096774 80.000000
  L 170.322581 330.000000
  L 173.548387 205.000000
  L 176.774194 330.000000
  L 180.000000 222.857143
  L 183.225806 222.857143
  L 186.451613 80.000000
  L 189.677419 205.000000
  L 192.903226 330.000000
  L 196.129032 330.000000
  L 199.354839 246.666667
  L 202.580645 246.666667
  L 205.806452 246.666667
  L 209.032258 246.666667
  L 212.258065 80.000000
  L 215.483871 205.000000
  L 218.709677 142.500000
  L 221.935484 80.000000
  L 225.161290 151.428571
  L 228.387097 246.666667
  L 231.612903 80.000000
  L 234.838710 80.000000
  L 238.064516 80.000000
  L 241.290323 80.000000
  L 244.516129 80.000000
  L 247.741935 330.000000
  L 250.967742 205.000000
  L 254.193548 205.000000
  L 257.419355 330.000000
  L 260.645161 80.000000
  L 263.870968 205.000000
  L 267.096774 80.000000
  L 270.322581 413.333333
  L 273.548387 205.000000
  L 276.774194 142.500000
  L 280.000000 267.500000
  L 283.225806 80.000000
  L 286.451613 246.666667
  L 289.677419 80.000000
  L 292.903226 180.000000
  L 296.129032 151.428571
  L 299.354839 222.857143
  L 302.580645 80.000000
  L 305.806452 80.000000
  L 309.032258 80.000000
  L 312.258065 280.000000
  L 315.483871 80.000000
  L 318.709677 80.000000
  L 321.935484 80.000000
  L 325.161290 205.000000
  L 328.387097 205.000000
  L 331.612903 80.000000
  L 334.838710 80.000000
  L 338.064516 280.000000
  L 341.290323 205.000000
  L 344.516129 180.000000
  L 347.741935 246.666667
  L 350.967742 163.333333
  L 354.193548 205.000000
  L 357.419355 80.000000
  L 360.645161 180.000000
  L 363.870968 80.000000
  L 367.096774 80.000000
  L 370.322581 80.000000
  L 373.548387 163.333333
  L 376.774194 80.000000
  L 380.000000 246.666667
  L 383.225806 580.000000
  L 386.451613 80.000000
  L 389.677419 163.333333
  L 392.903226 151.428571
  L 396.129032 205.000000
  L 399.354839 280.000000
  L 402.580645 280.000000
  L 405.806452 80.000000
  L 409.032258 80.000000
  L 412.258065 205.000000
  L 415.483871 205.000000
  L 418.709677 365.714286
  L 421.935484 163.333333
  L 425.161290 80.000000
  L 428.387097 580.000000
  L 431.612903 80.000000
  L 434.838710 180.000000
  L 438.064516 80.000000
  L 441.290323 80.000000
  L 444.516129 80.000000
  L 447.741935 80.000000
  L 450.967742 246.666667
  L 454.193548 330.000000
  L 457.419355 80.000000
  L 460.645161 180.000000
  L 463.870968 222.857143
  L 467.096774 205.000000
  L 470.322581 135.555556
  L 473.548387 80.000000
  L 476.774194 330.000000
  L 480.000000 180.000000
  L 483.225806 80.000000
  L 486.451613 80.000000
  L 489.677419 151.428571
  L 492.903226 80.000000
  L 496.129032 280.000000
  L 499.354839 246.666667
  L 502.580645 222.857143
  L 505.806452 80.000000
  L 509.032258 80.000000
  L 512.258065 330.000000
  L 515.483871 380.000000
  L 518.709677 246.666667
  L 525.161290 80.000000
  L 528.387097 330.000000
  L 531.612903 180.000000
  L 534.838710 80.000000
  L 538.064516 80.000000
  L 541.290323 80.000000
  L 544.516129 180.000000
  L 547.741935 205.000000
  L 550.967742 205.000000
  L 554.193548 80.000000
  L 557.419355 80.000000
  L 563.870968 80.000000
  L 567.096774 80.000000
" stroke="rgb(248,118,109)" stroke-width="2" fill-opacity="0"/>
<path d="M 83.225806 534.545455
  L 86.451613 580.000000
  L 89.677419 80.000000
  L 92.903226 580.000000
  L 96.129032 205.000000
  L 99.354839 413.333333
  L 102.580645 80.000000
  L 105.806452 413.333333
  L 109.032258 80.000000
  L 112.258065 413.333333
  L 115.483871 151.428571
  L 118.709677 280.000000
  L 121.935484 580.000000
  L 125.161290 205.000000
  L 128.387097 280.000000
  L 131.612903 222.857143
  L 134.838710 330.000000
  L 138.064516 246.666667
  L 141.290323 163.333333
  L 144.516129 151.428571
  L 147.741935 280.000000
  L 150.967742 280.000000
  L 154.193548 280.000000
  L 157.419355 246.666667
  L 160.645161 365.714286
  L 163.870968 80.000000
  L 167.096774 80.000000
  L 170.322581 246.666667
  L 173.548387 205.000000
  L 176.774194 330.000000
  L 180.000000 246.666667
  L 183.225806 191.111111
  L 186.451613 180.000000
  L 189.677419 330.000000
  L 192.903226 205.000000
  L 196.129032 180.000000
  L 199.354839 180.000000
  L 202.580645 180.000000
  L 205.806452 246.666667
  L 209.032258 205.000000
  L 212.258065 205.000000
  L 215.483871 246.666667
  L 218.709677 80.000000
  L 221.935484 80.000000
  L 225.161290 205.000000
  L 228.387097 180.000000
  L 231.612903 80.000000
  L 234.838710 380.000000
  L 238.064516 80.000000
  L 241.290323 80.000000
  L 244.516129 80.000000
  L 247.741935 246.666667
  L 250.967742 151.428571
  L 254.193548 413.333333
  L 257.419355 180.000000
  L 260.645161 180.000000
  L 263.870968 330.000000
  L 267.096774 80.000000
  L 270.322581 330.000000
  L 273.548387 330.000000
  L 276.774194 80.000000
  L 280.000000 222.857143
  L 283.225806 80.000000
  L 286.451613 180.000000
  L 289.677419 180.000000
  L 292.903226 180.000000
  L 296.129032 151.428571
  L 299.354839 80.000000
  L 302.580645 151.428571
  L 305.806452 80.000000
  L 309.032258 80.000000
  L 312.258065 180.000000
  L 318.709677 246.666667
  L 321.935484 80.000000
  L 325.161290 180.000000
  L 328.387097 80.000000
  L 331.612903 80.000000
  L 334.838710 180.000000
  L 338.064516 80.000000
  L 341.290323 80.000000
  L 344.516129 80.000000
  L 347.741935 205.000000
  L 350.967742 80.000000
  L 354.193548 80.000000
  L 357.419355 80.000000
  L 360.645161 246.666667
  L 363.870968 163.333333
  L 367.096774 246.666667
  L 370.322581 180.000000
  L 373.548387 80.000000
  L 376.774194 80.000000
  L 380.000000 330.000000
  L 383.225806 180.000000
  L 386.451613 205.000000
  L 389.677419 163.333333
  L 392.903226 180.000000
  L 396.129032 246.666667
  L 399.354839 80.000000
  L 402.580645 294.285714
  L 405.806452 80.000000
  L 409.032258 294.285714
  L 412.258065 246.666667
  L 415.483871 80.000000
  L 418.709677 246.666667
  L 421.935484 180.000000
  L 425.161290 80.000000
  L 428.387097 205.000000
  L 431.612903 80.000000
  L 434.838710 205.000000
  L 438.064516 80.000000
  L 441.290323 205.000000
  L 444.516129 80.000000
  L 447.741935 80.000000
  L 450.967742 330.000000
  L 454.193548 246.666667
  L 457.419355 80.000000
  L 460.645161 80.000000
  L 463.870968 330.000000
  L 467.096774 80.000000
  L 470.322581 80.000000
  L 473.548387 80.000000
  L 476.774194 246.666667
  L 480.000000 80.000000
  L 483.225806 80.000000
  L 486.451613 80.000000
  L 489.677419 80.000000
  L 492.903226 80.000000
  L 496.129032 80.000000
  L 502.580645 163.333333
  L 505.806452 80.000000
  L 509.032258 205.000000
  L 512.258065 80.000000
  L 515.483871 80.000000
  L 518.709677 80.000000
  L 521.935484 151.428571
  L 525.161290 80.000000
  L 528.387097 80.000000
  L 531.612903 246.666667
  L 534.838710 80.000000
  L 538.064516 180.000000
  L 541.290323 330.000000
  L 544.516129 80.000000
  L 547.741935 80.000000
  L 550.967742 413.333333
  L 554.193548 246.666667
  L 557.419355 80.000000
  L 560.645161 80.000000
  L 567.096774 80.000000
" stroke="rgb(0,191,196)" stroke-width="2" fill-opacity="0"/>
<text x="650" y="650" text-anchor="end">--OB 5,0,5,0</text>
<line x1="96.129032" y1="580" x2="96.129032" y2="80" stroke-dasharray="5 1" stroke="rgb(248,118,109)" stroke-width="1" />
<line x1="96.129032" y1="580" x2="96.129032" y2="80" stroke-dasharray="5 1" stroke="rgb(0,191,196)" stroke-width="1" />
<rect x="590" y="310" width="20" height="20" fill="rgb(248,118,109)" />
<text x="615" y="320" text-anchor="start" dominant-baseline="middle">#1</text>
<rect x="590" y="330" width="20" height="20" fill="rgb(0,191,196)" />
<text x="615" y="340" text-anchor="start" dominant-baseline="middle">#2</text>
</svg>
