<svg height="660" width="660"
    xmlns="http://www.w3.org/2000/svg"
    xmlns:xlink="http://www.w3.org/1999/xlink"
    xmlns:ev="http://www.w3.org/2001/xml-events">
<title>Original Top Strand</title>
<rect x="0" y="0" width="660" height="660" fill="white" />
<text x="330" y="20" text-anchor="middle">Original Top Strand ABLG-47625_cpg_OT.svg genome_hic_scaffold_1_RagTag CpG</text>
<line x1="80" y1="80" x2="80" y2="580" stroke="black" />
<line x1="80" y1="580" x2="580" y2="580" stroke="black" />
<text x="15" y="330" transform="rotate(270 15, 330)" text-anchor="middle" dominant-baseline="text-before-edge">CpG Methylation %</text>
<text x="330" y="620" text-anchor="middle">Position along mapped read (5'->3' of + strand)</text>
<line x1="80" y1="580" x2="80" y2="585" stroke="black" />
<text x="80" y="600" text-anchor="middle">0</text>
<line x1="112.258065" y1="80" x2="112.258065" y2="580" stroke-dasharray="5 5" stroke="grey" />
<line x1="112.258065" y1="580" x2="112.258065" y2="585" stroke="black" />
<text x="112.258065" y="600" text-anchor="middle">10</text>
<line x1="144.516129" y1="80" x2="144.516129" y2="580" stroke-dasharray="5 5" stroke="grey" />
<line x1="144.516129" y1="580" x2="144.516129" y2="585" stroke="black" />
<text x="144.516129" y="600" text-anchor="middle">20</text>
<line x1="176.774194" y1="80" x2="176.774194" y2="580" stroke-dasharray="5 5" stroke="grey" />
<line x1="176.774194" y1="580" x2="176.774194" y2="585" stroke="black" />
<text x="176.774194" y="600" text-anchor="middle">30</text>
<line x1="209.032258" y1="80" x2="209.032258" y2="580" stroke-dasharray="5 5" stroke="grey" />
<line x1="209.032258" y1="580" x2="209.032258" y2="585" stroke="black" />
<text x="209.032258" y="600" text-anchor="middle">40</text>
<line x1="241.290323" y1="80" x2="241.290323" y2="580" stroke-dasharray="5 5" stroke="grey" />
<line x1="241.290323" y1="580" x2="241.290323" y2="585" stroke="black" />
<text x="241.290323" y="600" text-anchor="middle">50</text>
<line x1="273.548387" y1="80" x2="273.548387" y2="580" stroke-dasharray="5 5" stroke="grey" />
<line x1="273.548387" y1="580" x2="273.548387" y2="585" stroke="black" />
<text x="273.548387" y="600" text-anchor="middle">60</text>
<line x1="305.806452" y1="80" x2="305.806452" y2="580" stroke-dasharray="5 5" stroke="grey" />
<line x1="305.806452" y1="580" x2="305.806452" y2="585" stroke="black" />
<text x="305.806452" y="600" text-anchor="middle">70</text>
<line x1="338.064516" y1="80" x2="338.064516" y2="580" stroke-dasharray="5 5" stroke="grey" />
<line x1="338.064516" y1="580" x2="338.064516" y2="585" stroke="black" />
<text x="338.064516" y="600" text-anchor="middle">80</text>
<line x1="370.322581" y1="80" x2="370.322581" y2="580" stroke-dasharray="5 5" stroke="grey" />
<line x1="370.322581" y1="580" x2="370.322581" y2="585" stroke="black" />
<text x="370.322581" y="600" text-anchor="middle">90</text>
<line x1="402.580645" y1="80" x2="402.580645" y2="580" stroke-dasharray="5 5" stroke="grey" />
<line x1="402.580645" y1="580" x2="402.580645" y2="585" stroke="black" />
<text x="402.580645" y="600" text-anchor="middle">100</text>
<line x1="434.838710" y1="80" x2="434.838710" y2="580" stroke-dasharray="5 5" stroke="grey" />
<line x1="434.838710" y1="580" x2="434.838710" y2="585" stroke="black" />
<text x="434.838710" y="600" text-anchor="middle">110</text>
<line x1="467.096774" y1="80" x2="467.096774" y2="580" stroke-dasharray="5 5" stroke="grey" />
<line x1="467.096774" y1="580" x2="467.096774" y2="585" stroke="black" />
<text x="467.096774" y="600" text-anchor="middle">120</text>
<line x1="499.354839" y1="80" x2="499.354839" y2="580" stroke-dasharray="5 5" stroke="grey" />
<line x1="499.354839" y1="580" x2="499.354839" y2="585" stroke="black" />
<text x="499.354839" y="600" text-anchor="middle">130</text>
<line x1="531.612903" y1="80" x2="531.612903" y2="580" stroke-dasharray="5 5" stroke="grey" />
<line x1="531.612903" y1="580" x2="531.612903" y2="585" stroke="black" />
<text x="531.612903" y="600" text-anchor="middle">140</text>
<line x1="563.870968" y1="80" x2="563.870968" y2="580" stroke-dasharray="5 5" stroke="grey" />
<line x1="563.870968" y1="580" x2="563.870968" y2="585" stroke="black" />
<text x="563.870968" y="600" text-anchor="middle">150</text>
<line x1="80" y1="580.000000" x2="75" y2="580.000000" stroke="black" />
<text x="55" y="580.000000" text-anchor="middle" dominant-baseline="middle">0.00</text>
<line x1="80" y1="555.000000" x2="75" y2="555.000000" stroke="black" />
<text x="55" y="555.000000" text-anchor="middle" dominant-baseline="middle">0.05</text>
<line x1="80" y1="530.000000" x2="75" y2="530.000000" stroke="black" />
<text x="55" y="530.000000" text-anchor="middle" dominant-baseline="middle">0.10</text>
<line x1="80" y1="505.000000" x2="75" y2="505.000000" stroke="black" />
<text x="55" y="505.000000" text-anchor="middle" dominant-baseline="middle">0.15</text>
<line x1="80" y1="480.000000" x2="75" y2="480.000000" stroke="black" />
<text x="55" y="480.000000" text-anchor="middle" dominant-baseline="middle">0.20</text>
<line x1="80" y1="455.000000" x2="75" y2="455.000000" stroke="black" />
<text x="55" y="455.000000" text-anchor="middle" dominant-baseline="middle">0.25</text>
<line x1="80" y1="430.000000" x2="75" y2="430.000000" stroke="black" />
<text x="55" y="430.000000" text-anchor="middle" dominant-baseline="middle">0.30</text>
<line x1="80" y1="405.000000" x2="75" y2="405.000000" stroke="black" />
<text x="55" y="405.000000" text-anchor="middle" dominant-baseline="middle">0.35</text>
<line x1="80" y1="380.000000" x2="75" y2="380.000000" stroke="black" />
<text x="55" y="380.000000" text-anchor="middle" dominant-baseline="middle">0.40</text>
<line x1="80" y1="355.000000" x2="75" y2="355.000000" stroke="black" />
<text x="55" y="355.000000" text-anchor="middle" dominant-baseline="middle">0.45</text>
<line x1="80" y1="330.000000" x2="75" y2="330.000000" stroke="black" />
<text x="55" y="330.000000" text-anchor="middle" dominant-baseline="middle">0.50</text>
<line x1="80" y1="305.000000" x2="75" y2="305.000000" stroke="black" />
<text x="55" y="305.000000" text-anchor="middle" dominant-baseline="middle">0.55</text>
<line x1="80" y1="280.000000" x2="75" y2="280.000000" stroke="black" />
<text x="55" y="280.000000" text-anchor="middle" dominant-baseline="middle">0.60</text>
<line x1="80" y1="255.000000" x2="75" y2="255.000000" stroke="black" />
<text x="55" y="255.000000" text-anchor="middle" dominant-baseline="middle">0.65</text>
<line x1="80" y1="230.000000" x2="75" y2="230.000000" stroke="black" />
<text x="55" y="230.000000" text-anchor="middle" dominant-baseline="middle">0.70</text>
<line x1="80" y1="205.000000" x2="75" y2="205.000000" stroke="black" />
<text x="55" y="205.000000" text-anchor="middle" dominant-baseline="middle">0.75</text>
<line x1="80" y1="180.000000" x2="75" y2="180.000000" stroke="black" />
<text x="55" y="180.000000" text-anchor="middle" dominant-baseline="middle">0.80</text>
<line x1="80" y1="155.000000" x2="75" y2="155.000000" stroke="black" />
<text x="55" y="155.000000" text-anchor="middle" dominant-baseline="middle">0.85</text>
<line x1="80" y1="130.000000" x2="75" y2="130.000000" stroke="black" />
<text x="55" y="130.000000" text-anchor="middle" dominant-baseline="middle">0.90</text>
<line x1="80" y1="105.000000" x2="75" y2="105.000000" stroke="black" />
<text x="55" y="105.000000" text-anchor="middle" dominant-baseline="middle">0.95</text>
<line x1="80" y1="80.000000" x2="75" y2="80.000000" stroke="black" />
<text x="55" y="80.000000" text-anchor="middle" dominant-baseline="middle">1.00</text>
<path d="M 83.225806 485.641156
  L 86.451613 532.565067
  L 89.677419 428.217022
  L 92.903226 517.897883
  L 96.129032 485.641156
  L 99.354839 430.031773
  L 102.580645 543.634061
  L 105.806452 532.565067
  L 109.032258 485.641156
  L 112.258065 568.724720
  L 115.483871 568.724720
  L 118.709677 507.960771
  L 121.935484 428.217022
  L 125.161290 575.402723
  L 128.387097 520.566814
  L 131.612903 428.217022
  L 134.838710 411.021668
  L 141.290323 532.565067
  L 144.516129 507.960771
  L 147.741935 395.393698
  L 150.967742 547.204569
  L 154.193548 446.895785
  L 157.419355 507.960771
  L 160.645161 468.271713
  L 163.870968 507.960771
  L 167.096774 580.000000
  L 170.322581 517.897883
  L 173.548387 485.641156
  L 176.774194 559.685352
  L 180.000000 462.145213
  L 183.225806 568.724720
  L 186.451613 468.271713
  L 189.677419 543.634061
  L 192.903226 446.895785
  L 196.129032 568.724720
  L 199.354839 499.402547
  L 202.580645 517.897883
  L 205.806452 428.217022
  L 209.032258 447.210271
  L 212.258065 447.210271
  L 215.483871 543.634061
  L 218.709677 485.641156
  L 221.935484 532.565067
  L 225.161290 465.362896
  L 228.387097 543.634061
  L 231.612903 468.271713
  L 234.838710 517.897883
  L 238.064516 430.031773
  L 241.290323 530.537122
  L 244.516129 491.715334
  L 247.741935 575.402723
  L 250.967742 447.210271
  L 254.193548 428.217022
  L 257.419355 538.548077
  L 260.645161 485.641156
  L 263.870968 532.565067
  L 267.096774 507.960771
  L 270.322581 468.271713
  L 273.548387 520.566814
  L 276.774194 465.362896
  L 280.000000 447.210271
  L 283.225806 462.145213
  L 286.451613 485.641156
  L 289.677419 447.210271
  L 292.903226 447.210271
  L 296.129032 530.537122
  L 299.354839 520.566814
  L 302.580645 507.960771
  L 309.032258 510.501624
  L 312.258065 447.210271
  L 315.483871 447.210271
  L 318.709677 520.566814
  L 321.935484 517.897883
  L 325.161290 517.897883
  L 328.387097 491.715334
  L 331.612903 547.204569
  L 334.838710 445.730035
  L 338.064516 507.960771
  L 341.290323 517.897883
  L 344.516129 580.000000
  L 347.741935 547.204569
  L 350.967742 507.960771
  L 354.193548 468.271713
  L 357.419355 532.565067
  L 360.645161 485.641156
  L 363.870968 474.791116
  L 367.096774 568.724720
  L 370.322581 468.271713
  L 373.548387 507.960771
  L 376.774194 468.271713
  L 380.000000 447.210271
  L 383.225806 532.565067
  L 386.451613 445.730035
  L 389.677419 507.960771
  L 392.903226 465.362896
  L 396.129032 520.566814
  L 402.580645 532.565067
  L 405.806452 507.960771
  L 409.032258 445.730035
  L 412.258065 517.897883
  L 415.483871 547.204569
  L 418.709677 479.983518
  L 421.935484 532.565067
  L 425.161290 532.565067
  L 428.387097 491.715334
  L 431.612903 491.715334
  L 434.838710 547.204569
  L 438.064516 532.565067
  L 441.290323 532.565067
  L 444.516129 559.685352
  L 447.741935 520.566814
  L 450.967742 547.204569
  L 454.193548 547.204569
  L 457.419355 485.641156
  L 460.645161 491.715334
  L 463.870968 465.362896
  L 467.096774 468.271713
  L 470.322581 547.204569
  L 473.548387 559.685352
  L 476.774194 559.685352
  L 480.000000 491.715334
  L 483.225806 499.402547
  L 486.451613 447.210271
  L 489.677419 568.724720
  L 492.903226 568.724720
  L 496.129032 517.897883
  L 499.354839 543.634061
  L 502.580645 479.983518
  L 509.032258 507.960771
  L 512.258065 580.000000
  L 515.483871 559.685352
  L 518.709677 547.204569
  L 521.935484 520.566814
  L 525.161290 547.204569
  L 531.612903 568.724720
  L 534.838710 517.897883
  L 538.064516 507.960771
  L 541.290323 568.724720
  L 544.516129 517.897883
  L 547.741935 568.724720
  L 554.193548 547.204569
  L 557.419355 559.685352
  L 560.645161 580.000000
  L 563.870968 517.897883
  L 567.096774 559.685352
  L 567.096774 100.314648
  L 563.870968 80.000000
  L 560.645161 112.795431
  L 557.419355 100.314648
  L 554.193548 80.000000
  L 547.741935 127.434933
  L 544.516129 80.000000
  L 541.290323 127.434933
  L 538.064516 84.597277
  L 534.838710 80.000000
  L 531.612903 127.434933
  L 525.161290 80.000000
  L 521.935484 107.842732
  L 518.709677 80.000000
  L 515.483871 100.314648
  L 512.258065 112.795431
  L 509.032258 84.597277
  L 502.580645 95.877122
  L 499.354839 116.365939
  L 496.129032 80.000000
  L 492.903226 127.434933
  L 489.677419 127.434933
  L 486.451613 80.000000
  L 483.225806 101.171153
  L 480.000000 80.000000
  L 476.774194 100.314648
  L 473.548387 100.314648
  L 470.322581 80.000000
  L 467.096774 80.000000
  L 463.870968 80.000000
  L 460.645161 80.000000
  L 457.419355 80.000000
  L 454.193548 80.000000
  L 450.967742 80.000000
  L 447.741935 107.842732
  L 444.516129 100.314648
  L 441.290323 91.275280
  L 438.064516 91.275280
  L 434.838710 80.000000
  L 431.612903 80.000000
  L 428.387097 80.000000
  L 425.161290 91.275280
  L 421.935484 91.275280
  L 418.709677 95.877122
  L 415.483871 80.000000
  L 412.258065 80.000000
  L 409.032258 88.182881
  L 405.806452 84.597277
  L 402.580645 91.275280
  L 396.129032 107.842732
  L 392.903226 80.000000
  L 389.677419 84.597277
  L 386.451613 88.182881
  L 383.225806 91.275280
  L 380.000000 80.000000
  L 376.774194 80.000000
  L 373.548387 84.597277
  L 370.322581 80.000000
  L 367.096774 127.434933
  L 363.870968 109.556633
  L 360.645161 80.000000
  L 357.419355 91.275280
  L 354.193548 80.000000
  L 350.967742 84.597277
  L 347.741935 80.000000
  L 344.516129 112.795431
  L 341.290323 80.000000
  L 338.064516 84.597277
  L 334.838710 88.182881
  L 331.612903 80.000000
  L 328.387097 80.000000
  L 325.161290 80.000000
  L 321.935484 80.000000
  L 318.709677 107.842732
  L 315.483871 80.000000
  L 312.258065 80.000000
  L 309.032258 121.451923
  L 302.580645 84.597277
  L 299.354839 107.842732
  L 296.129032 129.462878
  L 292.903226 80.000000
  L 289.677419 80.000000
  L 286.451613 80.000000
  L 283.225806 91.627568
  L 280.000000 80.000000
  L 276.774194 80.000000
  L 273.548387 107.842732
  L 270.322581 80.000000
  L 267.096774 84.597277
  L 263.870968 91.275280
  L 260.645161 80.000000
  L 257.419355 149.498376
  L 254.193548 80.000000
  L 250.967742 80.000000
  L 247.741935 152.039229
  L 244.516129 80.000000
  L 241.290323 129.462878
  L 238.064516 80.000000
  L 234.838710 80.000000
  L 231.612903 80.000000
  L 228.387097 116.365939
  L 225.161290 80.000000
  L 221.935484 91.275280
  L 218.709677 80.000000
  L 215.483871 116.365939
  L 212.258065 80.000000
  L 209.032258 80.000000
  L 205.806452 80.000000
  L 202.580645 80.000000
  L 199.354839 101.171153
  L 196.129032 127.434933
  L 192.903226 80.000000
  L 189.677419 116.365939
  L 186.451613 80.000000
  L 183.225806 127.434933
  L 180.000000 91.627568
  L 176.774194 100.314648
  L 173.548387 80.000000
  L 170.322581 80.000000
  L 167.096774 112.795431
  L 163.870968 84.597277
  L 160.645161 80.000000
  L 157.419355 84.597277
  L 154.193548 80.000000
  L 150.967742 80.000000
  L 147.741935 80.000000
  L 144.516129 84.597277
  L 141.290323 91.275280
  L 134.838710 80.000000
  L 131.612903 80.000000
  L 128.387097 107.842732
  L 125.161290 152.039229
  L 121.935484 80.000000
  L 118.709677 84.597277
  L 115.483871 127.434933
  L 112.258065 127.434933
  L 109.032258 80.000000
  L 105.806452 91.275280
  L 102.580645 116.365939
  L 99.354839 80.000000
  L 96.129032 80.000000
  L 92.903226 80.000000
  L 89.677419 80.000000
  L 86.451613 91.275280
  L 83.225806 80.000000
Z" fill="rgb(248,118,109)" fill-opacity="0.2"/>
<path d="M 83.225806 485.641156
  L 86.451613 580.000000
  L 89.677419 447.210271
  L 96.129032 468.271713
  L 99.354839 468.271713
  L 102.580645 532.565067
  L 105.806452 517.897883
  L 109.032258 428.217022
  L 112.258065 552.157268
  L 115.483871 559.685352
  L 118.709677 507.960771
  L 121.935484 507.960771
  L 125.161290 580.000000
  L 128.387097 507.960771
  L 131.612903 485.641156
  L 134.838710 430.031773
  L 138.064516 547.204569
  L 141.290323 507.960771
  L 147.741935 447.210271
  L 150.967742 491.715334
  L 154.193548 491.715334
  L 157.419355 479.983518
  L 160.645161 580.000000
  L 163.870968 491.715334
  L 167.096774 559.685352
  L 170.322581 520.566814
  L 173.548387 465.362896
  L 176.774194 530.537122
  L 180.000000 499.402547
  L 183.225806 520.566814
  L 186.451613 491.715334
  L 189.677419 517.897883
  L 192.903226 430.031773
  L 196.129032 543.634061
  L 199.354839 517.897883
  L 202.580645 532.565067
  L 205.806452 491.715334
  L 209.032258 447.210271
  L 212.258065 547.204569
  L 215.483871 428.217022
  L 218.709677 507.960771
  L 221.935484 559.685352
  L 225.161290 575.402723
  L 228.387097 485.641156
  L 231.612903 507.960771
  L 234.838710 491.715334
  L 238.064516 447.210271
  L 241.290323 501.900342
  L 244.516129 491.715334
  L 247.741935 552.157268
  L 250.967742 499.402547
  L 254.193548 446.895785
  L 257.419355 530.537122
  L 260.645161 465.362896
  L 263.870968 543.634061
  L 267.096774 447.210271
  L 270.322581 447.210271
  L 273.548387 575.402723
  L 276.774194 468.271713
  L 280.000000 468.271713
  L 283.225806 428.217022
  L 286.451613 543.634061
  L 289.677419 430.031773
  L 292.903226 465.362896
  L 296.129032 507.960771
  L 299.354839 485.641156
  L 302.580645 559.685352
  L 305.806452 547.204569
  L 309.032258 491.957397
  L 312.258065 507.960771
  L 315.483871 447.210271
  L 318.709677 485.641156
  L 321.935484 491.715334
  L 325.161290 547.204569
  L 328.387097 517.897883
  L 331.612903 485.641156
  L 334.838710 468.271713
  L 338.064516 507.960771
  L 341.290323 532.565067
  L 344.516129 491.715334
  L 347.741935 559.685352
  L 350.967742 491.715334
  L 354.193548 491.715334
  L 357.419355 520.566814
  L 360.645161 462.145213
  L 363.870968 479.983518
  L 367.096774 543.634061
  L 370.322581 485.641156
  L 373.548387 547.204569
  L 376.774194 517.897883
  L 380.000000 462.145213
  L 383.225806 532.565067
  L 386.451613 575.402723
  L 389.677419 559.685352
  L 392.903226 465.362896
  L 396.129032 520.566814
  L 402.580645 543.634061
  L 405.806452 485.641156
  L 409.032258 507.960771
  L 415.483871 491.715334
  L 418.709677 543.634061
  L 421.935484 510.501624
  L 425.161290 485.641156
  L 428.387097 532.565067
  L 431.612903 559.685352
  L 434.838710 491.715334
  L 438.064516 491.715334
  L 441.290323 468.271713
  L 444.516129 580.000000
  L 447.741935 465.362896
  L 457.419355 520.566814
  L 460.645161 517.897883
  L 463.870968 559.685352
  L 467.096774 532.565067
  L 470.322581 485.641156
  L 473.548387 530.537122
  L 476.774194 532.565067
  L 480.000000 532.565067
  L 483.225806 468.271713
  L 486.451613 543.634061
  L 489.677419 510.501624
  L 492.903226 547.204569
  L 496.129032 547.204569
  L 499.354839 568.724720
  L 502.580645 547.204569
  L 505.806452 532.565067
  L 509.032258 517.897883
  L 512.258065 543.634061
  L 515.483871 547.204569
  L 518.709677 532.565067
  L 525.161290 532.565067
  L 531.612903 543.634061
  L 534.838710 543.634061
  L 538.064516 559.685352
  L 541.290323 532.565067
  L 544.516129 491.715334
  L 547.741935 510.501624
  L 550.967742 568.724720
  L 554.193548 575.402723
  L 557.419355 559.685352
  L 560.645161 580.000000
  L 563.870968 580.000000
  L 563.870968 112.795431
  L 560.645161 112.795431
  L 557.419355 100.314648
  L 554.193548 152.039229
  L 550.967742 127.434933
  L 547.741935 121.451923
  L 544.516129 80.000000
  L 541.290323 91.275280
  L 538.064516 100.314648
  L 534.838710 116.365939
  L 531.612903 116.365939
  L 525.161290 91.275280
  L 518.709677 91.275280
  L 515.483871 80.000000
  L 512.258065 116.365939
  L 509.032258 80.000000
  L 505.806452 91.275280
  L 502.580645 80.000000
  L 499.354839 127.434933
  L 496.129032 80.000000
  L 492.903226 80.000000
  L 489.677419 121.451923
  L 486.451613 116.365939
  L 483.225806 80.000000
  L 480.000000 91.275280
  L 476.774194 91.275280
  L 473.548387 129.462878
  L 470.322581 80.000000
  L 467.096774 91.275280
  L 463.870968 100.314648
  L 460.645161 80.000000
  L 457.419355 107.842732
  L 447.741935 80.000000
  L 444.516129 142.102117
  L 441.290323 80.000000
  L 438.064516 80.000000
  L 434.838710 80.000000
  L 431.612903 100.314648
  L 428.387097 91.275280
  L 425.161290 80.000000
  L 421.935484 121.451923
  L 418.709677 116.365939
  L 415.483871 80.000000
  L 409.032258 84.597277
  L 405.806452 80.000000
  L 402.580645 116.365939
  L 396.129032 107.842732
  L 392.903226 80.000000
  L 389.677419 100.314648
  L 386.451613 152.039229
  L 383.225806 91.275280
  L 380.000000 91.627568
  L 376.774194 80.000000
  L 373.548387 80.000000
  L 370.322581 80.000000
  L 367.096774 116.365939
  L 363.870968 95.877122
  L 360.645161 91.627568
  L 357.419355 107.842732
  L 354.193548 80.000000
  L 350.967742 80.000000
  L 347.741935 100.314648
  L 344.516129 80.000000
  L 341.290323 91.275280
  L 338.064516 84.597277
  L 334.838710 80.000000
  L 331.612903 80.000000
  L 328.387097 80.000000
  L 325.161290 80.000000
  L 321.935484 80.000000
  L 318.709677 80.000000
  L 315.483871 80.000000
  L 312.258065 84.597277
  L 309.032258 114.928994
  L 305.806452 80.000000
  L 302.580645 100.314648
  L 299.354839 80.000000
  L 296.129032 84.597277
  L 292.903226 80.000000
  L 289.677419 80.000000
  L 286.451613 116.365939
  L 283.225806 80.000000
  L 280.000000 80.000000
  L 276.774194 80.000000
  L 273.548387 152.039229
  L 270.322581 80.000000
  L 267.096774 80.000000
  L 263.870968 116.365939
  L 260.645161 80.000000
  L 257.419355 129.462878
  L 254.193548 80.000000
  L 250.967742 101.171153
  L 247.741935 139.433186
  L 244.516129 80.000000
  L 241.290323 132.882242
  L 238.064516 80.000000
  L 234.838710 80.000000
  L 231.612903 84.597277
  L 228.387097 80.000000
  L 225.161290 152.039229
  L 221.935484 100.314648
  L 218.709677 84.597277
  L 215.483871 80.000000
  L 212.258065 80.000000
  L 209.032258 80.000000
  L 205.806452 80.000000
  L 202.580645 91.275280
  L 199.354839 80.000000
  L 196.129032 116.365939
  L 192.903226 80.000000
  L 189.677419 80.000000
  L 186.451613 80.000000
  L 183.225806 107.842732
  L 180.000000 101.171153
  L 176.774194 129.462878
  L 173.548387 80.000000
  L 170.322581 107.842732
  L 167.096774 100.314648
  L 163.870968 80.000000
  L 160.645161 112.795431
  L 157.419355 95.877122
  L 154.193548 80.000000
  L 150.967742 80.000000
  L 147.741935 80.000000
  L 141.290323 84.597277
  L 138.064516 80.000000
  L 134.838710 80.000000
  L 131.612903 80.000000
  L 128.387097 84.597277
  L 125.161290 174.358844
  L 121.935484 84.597277
  L 118.709677 84.597277
  L 115.483871 100.314648
  L 112.258065 139.433186
  L 109.032258 80.000000
  L 105.806452 80.000000
  L 102.580645 91.275280
  L 99.354839 80.000000
  L 96.129032 80.000000
  L 89.677419 80.000000
  L 86.451613 112.795431
  L 83.225806 80.000000
Z" fill="rgb(0,191,196)" fill-opacity="0.2"/>
<path d="M 83.225806 180.000000
  L 86.451613 246.666667
  L 89.677419 80.000000
  L 92.903226 80.000000
  L 96.129032 180.000000
  L 99.354839 142.500000
  L 102.580645 330.000000
  L 105.806452 246.666667
  L 109.032258 180.000000
  L 112.258065 413.333333
  L 115.483871 413.333333
  L 118.709677 205.000000
  L 121.935484 80.000000
  L 125.161290 455.000000
  L 128.387097 280.000000
  L 131.612903 80.000000
  L 134.838710 80.000000
  L 141.290323 246.666667
  L 144.516129 205.000000
  L 147.741935 80.000000
  L 150.967742 80.000000
  L 154.193548 151.428571
  L 157.419355 205.000000
  L 160.645161 80.000000
  L 163.870968 205.000000
  L 167.096774 580.000000
  L 170.322581 80.000000
  L 173.548387 180.000000
  L 176.774194 330.000000
  L 180.000000 205.000000
  L 183.225806 413.333333
  L 186.451613 80.000000
  L 189.677419 330.000000
  L 192.903226 151.428571
  L 196.129032 413.333333
  L 199.354839 246.666667
  L 202.580645 80.000000
  L 205.806452 80.000000
  L 209.032258 80.000000
  L 212.258065 80.000000
  L 215.483871 330.000000
  L 218.709677 180.000000
  L 221.935484 246.666667
  L 225.161290 163.333333
  L 228.387097 330.000000
  L 231.612903 80.000000
  L 234.838710 80.000000
  L 238.064516 142.500000
  L 241.290323 330.000000
  L 244.516129 80.000000
  L 247.741935 455.000000
  L 250.967742 80.000000
  L 254.193548 80.000000
  L 257.419355 365.714286
  L 260.645161 180.000000
  L 263.870968 246.666667
  L 267.096774 205.000000
  L 270.322581 80.000000
  L 273.548387 280.000000
  L 276.774194 163.333333
  L 280.000000 80.000000
  L 283.225806 205.000000
  L 286.451613 180.000000
  L 289.677419 80.000000
  L 292.903226 80.000000
  L 296.129032 330.000000
  L 299.354839 280.000000
  L 302.580645 205.000000
  L 309.032258 294.285714
  L 312.258065 80.000000
  L 315.483871 80.000000
  L 318.709677 280.000000
  L 321.935484 80.000000
  L 325.161290 80.000000
  L 328.387097 80.000000
  L 331.612903 80.000000
  L 334.838710 191.111111
  L 338.064516 205.000000
  L 341.290323 80.000000
  L 344.516129 580.000000
  L 347.741935 80.000000
  L 350.967742 205.000000
  L 354.193548 80.000000
  L 357.419355 246.666667
  L 360.645161 180.000000
  L 363.870968 246.666667
  L 367.096774 413.333333
  L 370.322581 80.000000
  L 373.548387 205.000000
  L 376.774194 80.000000
  L 380.000000 80.000000
  L 383.225806 246.666667
  L 386.451613 191.111111
  L 389.677419 205.000000
  L 392.903226 163.333333
  L 396.129032 280.000000
  L 402.580645 246.666667
  L 405.806452 205.000000
  L 409.032258 191.111111
  L 412.258065 80.000000
  L 415.483871 80.000000
  L 418.709677 222.857143
  L 421.935484 246.666667
  L 425.161290 246.666667
  L 428.387097 80.000000
  L 431.612903 80.000000
  L 434.838710 80.000000
  L 438.064516 246.666667
  L 441.290323 246.666667
  L 444.516129 330.000000
  L 447.741935 280.000000
  L 450.967742 80.000000
  L 454.193548 80.000000
  L 457.419355 180.000000
  L 460.645161 80.000000
  L 463.870968 163.333333
  L 467.096774 80.000000
  L 470.322581 80.000000
  L 473.548387 330.000000
  L 476.774194 330.000000
  L 480.000000 80.000000
  L 483.225806 246.666667
  L 486.451613 80.000000
  L 489.677419 413.333333
  L 492.903226 413.333333
  L 496.129032 80.000000
  L 499.354839 330.000000
  L 502.580645 222.857143
  L 509.032258 205.000000
  L 512.258065 580.000000
  L 515.483871 330.000000
  L 518.709677 80.000000
  L 521.935484 280.000000
  L 525.161290 80.000000
  L 531.612903 413.333333
  L 534.838710 80.000000
  L 538.064516 205.000000
  L 541.290323 413.333333
  L 544.516129 80.000000
  L 547.741935 413.333333
  L 554.193548 80.000000
  L 557.419355 330.000000
  L 560.645161 580.000000
  L 563.870968 80.000000
  L 567.096774 330.000000
" stroke="rgb(248,118,109)" stroke-width="2" fill-opacity="0"/>
<path d="M 83.225806 180.000000
  L 86.451613 580.000000
  L 89.677419 80.000000
  L 96.129032 80.000000
  L 99.354839 80.000000
  L 102.580645 246.666667
  L 105.806452 80.000000
  L 109.032258 80.000000
  L 112.258065 380.000000
  L 115.483871 330.000000
  L 118.709677 205.000000
  L 121.935484 205.000000
  L 125.161290 480.000000
  L 128.387097 205.000000
  L 131.612903 180.000000
  L 134.838710 142.500000
  L 138.064516 80.000000
  L 141.290323 205.000000
  L 147.741935 80.000000
  L 150.967742 80.000000
  L 154.193548 80.000000
  L 157.419355 222.857143
  L 160.645161 580.000000
  L 163.870968 80.000000
  L 167.096774 330.000000
  L 170.322581 280.000000
  L 173.548387 163.333333
  L 176.774194 330.000000
  L 180.000000 246.666667
  L 183.225806 280.000000
  L 186.451613 80.000000
  L 189.677419 80.000000
  L 192.903226 142.500000
  L 196.129032 330.000000
  L 199.354839 80.000000
  L 202.580645 246.666667
  L 205.806452 80.000000
  L 209.032258 80.000000
  L 212.258065 80.000000
  L 215.483871 80.000000
  L 218.709677 205.000000
  L 221.935484 330.000000
  L 225.161290 455.000000
  L 228.387097 180.000000
  L 231.612903 205.000000
  L 234.838710 80.000000
  L 238.064516 80.000000
  L 241.290323 302.222222
  L 244.516129 80.000000
  L 247.741935 380.000000
  L 250.967742 246.666667
  L 254.193548 151.428571
  L 257.419355 330.000000
  L 260.645161 163.333333
  L 263.870968 330.000000
  L 267.096774 80.000000
  L 270.322581 80.000000
  L 273.548387 455.000000
  L 276.774194 80.000000
  L 280.000000 80.000000
  L 283.225806 80.000000
  L 286.451613 330.000000
  L 289.677419 142.500000
  L 292.903226 163.333333
  L 296.129032 205.000000
  L 299.354839 180.000000
  L 302.580645 330.000000
  L 305.806452 80.000000
  L 309.032258 267.500000
  L 312.258065 205.000000
  L 315.483871 80.000000
  L 318.709677 180.000000
  L 321.935484 80.000000
  L 325.161290 80.000000
  L 328.387097 80.000000
  L 331.612903 180.000000
  L 334.838710 80.000000
  L 338.064516 205.000000
  L 341.290323 246.666667
  L 344.516129 80.000000
  L 347.741935 330.000000
  L 350.967742 80.000000
  L 354.193548 80.000000
  L 357.419355 280.000000
  L 360.645161 205.000000
  L 363.870968 222.857143
  L 367.096774 330.000000
  L 370.322581 180.000000
  L 373.548387 80.000000
  L 376.774194 80.000000
  L 380.000000 205.000000
  L 383.225806 246.666667
  L 386.451613 455.000000
  L 389.677419 330.000000
  L 392.903226 163.333333
  L 396.129032 280.000000
  L 402.580645 330.000000
  L 405.806452 180.000000
  L 409.032258 205.000000
  L 415.483871 80.000000
  L 418.709677 330.000000
  L 421.935484 294.285714
  L 425.161290 180.000000
  L 428.387097 246.666667
  L 431.612903 330.000000
  L 434.838710 80.000000
  L 438.064516 80.000000
  L 441.290323 80.000000
  L 444.516129 580.000000
  L 447.741935 163.333333
  L 457.419355 280.000000
  L 460.645161 80.000000
  L 463.870968 330.000000
  L 467.096774 246.666667
  L 470.322581 180.000000
  L 473.548387 330.000000
  L 476.774194 246.666667
  L 480.000000 246.666667
  L 483.225806 80.000000
  L 486.451613 330.000000
  L 489.677419 294.285714
  L 492.903226 80.000000
  L 496.129032 80.000000
  L 499.354839 413.333333
  L 502.580645 80.000000
  L 505.806452 246.666667
  L 509.032258 80.000000
  L 512.258065 330.000000
  L 515.483871 80.000000
  L 518.709677 246.666667
  L 525.161290 246.666667
  L 531.612903 330.000000
  L 534.838710 330.000000
  L 538.064516 330.000000
  L 541.290323 246.666667
  L 544.516129 80.000000
  L 547.741935 294.285714
  L 550.967742 413.333333
  L 554.193548 455.000000
  L 557.419355 330.000000
  L 560.645161 580.000000
  L 563.870968 580.000000
" stroke="rgb(0,191,196)" stroke-width="2" fill-opacity="0"/>
<rect x="590" y="310" width="20" height="20" fill="rgb(248,118,109)" />
<text x="615" y="320" text-anchor="start" dominant-baseline="middle">#1</text>
<rect x="590" y="330" width="20" height="20" fill="rgb(0,191,196)" />
<text x="615" y="340" text-anchor="start" dominant-baseline="middle">#2</text>
</svg>
