<svg height="660" width="660"
    xmlns="http://www.w3.org/2000/svg"
    xmlns:xlink="http://www.w3.org/1999/xlink"
    xmlns:ev="http://www.w3.org/2001/xml-events">
<title>Original Bottom Strand</title>
<rect x="0" y="0" width="660" height="660" fill="white" />
<text x="330" y="20" text-anchor="middle">Original Bottom Strand ABLG-47625_chn_OB.svg genome_hic_scaffold_1_RagTag CHN </text>
<line x1="80" y1="80" x2="80" y2="580" stroke="black" />
<line x1="80" y1="580" x2="580" y2="580" stroke="black" />
<text x="15" y="330" transform="rotate(270 15, 330)" text-anchor="middle" dominant-baseline="text-before-edge">CHG/CHH Methylation %</text>
<text x="330" y="620" text-anchor="middle">Position along mapped read (5'->3' of + strand)</text>
<line x1="80" y1="580" x2="80" y2="585" stroke="black" />
<text x="80" y="600" text-anchor="middle">0</text>
<line x1="112.258065" y1="80" x2="112.258065" y2="580" stroke-dasharray="5 5" stroke="grey" />
<line x1="112.258065" y1="580" x2="112.258065" y2="585" stroke="black" />
<text x="112.258065" y="600" text-anchor="middle">10</text>
<line x1="144.516129" y1="80" x2="144.516129" y2="580" stroke-dasharray="5 5" stroke="grey" />
<line x1="144.516129" y1="580" x2="144.516129" y2="585" stroke="black" />
<text x="144.516129" y="600" text-anchor="middle">20</text>
<line x1="176.774194" y1="80" x2="176.774194" y2="580" stroke-dasharray="5 5" stroke="grey" />
<line x1="176.774194" y1="580" x2="176.774194" y2="585" stroke="black" />
<text x="176.774194" y="600" text-anchor="middle">30</text>
<line x1="209.032258" y1="80" x2="209.032258" y2="580" stroke-dasharray="5 5" stroke="grey" />
<line x1="209.032258" y1="580" x2="209.032258" y2="585" stroke="black" />
<text x="209.032258" y="600" text-anchor="middle">40</text>
<line x1="241.290323" y1="80" x2="241.290323" y2="580" stroke-dasharray="5 5" stroke="grey" />
<line x1="241.290323" y1="580" x2="241.290323" y2="585" stroke="black" />
<text x="241.290323" y="600" text-anchor="middle">50</text>
<line x1="273.548387" y1="80" x2="273.548387" y2="580" stroke-dasharray="5 5" stroke="grey" />
<line x1="273.548387" y1="580" x2="273.548387" y2="585" stroke="black" />
<text x="273.548387" y="600" text-anchor="middle">60</text>
<line x1="305.806452" y1="80" x2="305.806452" y2="580" stroke-dasharray="5 5" stroke="grey" />
<line x1="305.806452" y1="580" x2="305.806452" y2="585" stroke="black" />
<text x="305.806452" y="600" text-anchor="middle">70</text>
<line x1="338.064516" y1="80" x2="338.064516" y2="580" stroke-dasharray="5 5" stroke="grey" />
<line x1="338.064516" y1="580" x2="338.064516" y2="585" stroke="black" />
<text x="338.064516" y="600" text-anchor="middle">80</text>
<line x1="370.322581" y1="80" x2="370.322581" y2="580" stroke-dasharray="5 5" stroke="grey" />
<line x1="370.322581" y1="580" x2="370.322581" y2="585" stroke="black" />
<text x="370.322581" y="600" text-anchor="middle">90</text>
<line x1="402.580645" y1="80" x2="402.580645" y2="580" stroke-dasharray="5 5" stroke="grey" />
<line x1="402.580645" y1="580" x2="402.580645" y2="585" stroke="black" />
<text x="402.580645" y="600" text-anchor="middle">100</text>
<line x1="434.838710" y1="80" x2="434.838710" y2="580" stroke-dasharray="5 5" stroke="grey" />
<line x1="434.838710" y1="580" x2="434.838710" y2="585" stroke="black" />
<text x="434.838710" y="600" text-anchor="middle">110</text>
<line x1="467.096774" y1="80" x2="467.096774" y2="580" stroke-dasharray="5 5" stroke="grey" />
<line x1="467.096774" y1="580" x2="467.096774" y2="585" stroke="black" />
<text x="467.096774" y="600" text-anchor="middle">120</text>
<line x1="499.354839" y1="80" x2="499.354839" y2="580" stroke-dasharray="5 5" stroke="grey" />
<line x1="499.354839" y1="580" x2="499.354839" y2="585" stroke="black" />
<text x="499.354839" y="600" text-anchor="middle">130</text>
<line x1="531.612903" y1="80" x2="531.612903" y2="580" stroke-dasharray="5 5" stroke="grey" />
<line x1="531.612903" y1="580" x2="531.612903" y2="585" stroke="black" />
<text x="531.612903" y="600" text-anchor="middle">140</text>
<line x1="563.870968" y1="80" x2="563.870968" y2="580" stroke-dasharray="5 5" stroke="grey" />
<line x1="563.870968" y1="580" x2="563.870968" y2="585" stroke="black" />
<text x="563.870968" y="600" text-anchor="middle">150</text>
<line x1="80" y1="580.000000" x2="75" y2="580.000000" stroke="black" />
<text x="55" y="580.000000" text-anchor="middle" dominant-baseline="middle">0.00</text>
<line x1="80" y1="538.333333" x2="75" y2="538.333333" stroke="black" />
<text x="55" y="538.333333" text-anchor="middle" dominant-baseline="middle">0.05</text>
<line x1="80" y1="496.666667" x2="75" y2="496.666667" stroke="black" />
<text x="55" y="496.666667" text-anchor="middle" dominant-baseline="middle">0.10</text>
<line x1="80" y1="455.000000" x2="75" y2="455.000000" stroke="black" />
<text x="55" y="455.000000" text-anchor="middle" dominant-baseline="middle">0.15</text>
<line x1="80" y1="413.333333" x2="75" y2="413.333333" stroke="black" />
<text x="55" y="413.333333" text-anchor="middle" dominant-baseline="middle">0.20</text>
<line x1="80" y1="371.666667" x2="75" y2="371.666667" stroke="black" />
<text x="55" y="371.666667" text-anchor="middle" dominant-baseline="middle">0.25</text>
<line x1="80" y1="330.000000" x2="75" y2="330.000000" stroke="black" />
<text x="55" y="330.000000" text-anchor="middle" dominant-baseline="middle">0.30</text>
<line x1="80" y1="288.333333" x2="75" y2="288.333333" stroke="black" />
<text x="55" y="288.333333" text-anchor="middle" dominant-baseline="middle">0.35</text>
<line x1="80" y1="246.666667" x2="75" y2="246.666667" stroke="black" />
<text x="55" y="246.666667" text-anchor="middle" dominant-baseline="middle">0.40</text>
<line x1="80" y1="205.000000" x2="75" y2="205.000000" stroke="black" />
<text x="55" y="205.000000" text-anchor="middle" dominant-baseline="middle">0.45</text>
<line x1="80" y1="163.333333" x2="75" y2="163.333333" stroke="black" />
<text x="55" y="163.333333" text-anchor="middle" dominant-baseline="middle">0.50</text>
<line x1="80" y1="121.666667" x2="75" y2="121.666667" stroke="black" />
<text x="55" y="121.666667" text-anchor="middle" dominant-baseline="middle">0.55</text>
<line x1="80" y1="80.000000" x2="75" y2="80.000000" stroke="black" />
<text x="55" y="80.000000" text-anchor="middle" dominant-baseline="middle">0.60</text>
<line x1="80" y1="38.333333" x2="75" y2="38.333333" stroke="black" />
<text x="55" y="38.333333" text-anchor="middle" dominant-baseline="middle">0.65</text>
<path d="M 83.225806 580.000000
  L 86.451613 580.000000
  L 89.677419 580.000000
  L 92.903226 580.000000
  L 96.129032 580.000000
  L 99.354839 580.000000
  L 102.580645 580.000000
  L 105.806452 580.000000
  L 109.032258 580.000000
  L 112.258065 580.000000
  L 115.483871 578.798523
  L 118.709677 580.000000
  L 121.935484 580.000000
  L 125.161290 580.000000
  L 128.387097 580.000000
  L 131.612903 580.000000
  L 134.838710 580.000000
  L 138.064516 580.000000
  L 141.290323 580.000000
  L 144.516129 580.000000
  L 147.741935 580.000000
  L 150.967742 580.000000
  L 154.193548 580.000000
  L 157.419355 580.000000
  L 160.645161 580.000000
  L 163.870968 580.000000
  L 167.096774 580.000000
  L 170.322581 580.000000
  L 173.548387 580.000000
  L 176.774194 580.000000
  L 180.000000 580.000000
  L 183.225806 580.000000
  L 186.451613 580.000000
  L 189.677419 580.000000
  L 192.903226 580.000000
  L 196.129032 580.000000
  L 199.354839 580.000000
  L 202.580645 580.000000
  L 205.806452 580.000000
  L 209.032258 580.000000
  L 212.258065 580.000000
  L 215.483871 580.000000
  L 218.709677 580.000000
  L 221.935484 580.000000
  L 225.161290 580.000000
  L 228.387097 580.000000
  L 231.612903 580.000000
  L 234.838710 580.000000
  L 238.064516 580.000000
  L 241.290323 580.000000
  L 244.516129 580.000000
  L 247.741935 580.000000
  L 250.967742 580.000000
  L 254.193548 580.000000
  L 257.419355 580.000000
  L 260.645161 580.000000
  L 263.870968 580.000000
  L 267.096774 580.000000
  L 270.322581 580.000000
  L 273.548387 580.000000
  L 276.774194 580.000000
  L 280.000000 580.000000
  L 283.225806 580.000000
  L 286.451613 580.000000
  L 289.677419 580.000000
  L 292.903226 580.000000
  L 296.129032 580.000000
  L 299.354839 580.000000
  L 302.580645 580.000000
  L 305.806452 580.000000
  L 309.032258 580.000000
  L 312.258065 580.000000
  L 315.483871 580.000000
  L 318.709677 580.000000
  L 321.935484 580.000000
  L 325.161290 580.000000
  L 328.387097 580.000000
  L 331.612903 580.000000
  L 334.838710 580.000000
  L 338.064516 580.000000
  L 341.290323 580.000000
  L 344.516129 580.000000
  L 347.741935 580.000000
  L 350.967742 580.000000
  L 354.193548 580.000000
  L 357.419355 580.000000
  L 360.645161 580.000000
  L 363.870968 580.000000
  L 367.096774 580.000000
  L 370.322581 580.000000
  L 373.548387 580.000000
  L 376.774194 580.000000
  L 380.000000 580.000000
  L 383.225806 580.000000
  L 386.451613 580.000000
  L 389.677419 580.000000
  L 392.903226 580.000000
  L 396.129032 580.000000
  L 399.354839 580.000000
  L 402.580645 580.000000
  L 405.806452 580.000000
  L 409.032258 580.000000
  L 412.258065 580.000000
  L 415.483871 580.000000
  L 418.709677 580.000000
  L 421.935484 580.000000
  L 425.161290 580.000000
  L 428.387097 580.000000
  L 431.612903 580.000000
  L 434.838710 580.000000
  L 438.064516 580.000000
  L 441.290323 580.000000
  L 444.516129 580.000000
  L 447.741935 580.000000
  L 450.967742 580.000000
  L 454.193548 580.000000
  L 457.419355 580.000000
  L 460.645161 580.000000
  L 463.870968 580.000000
  L 467.096774 580.000000
  L 470.322581 580.000000
  L 473.548387 580.000000
  L 476.774194 580.000000
  L 480.000000 580.000000
  L 483.225806 580.000000
  L 486.451613 580.000000
  L 489.677419 564.087219
  L 492.903226 580.000000
  L 496.129032 580.000000
  L 499.354839 580.000000
  L 502.580645 580.000000
  L 505.806452 580.000000
  L 509.032258 580.000000
  L 512.258065 580.000000
  L 515.483871 580.000000
  L 518.709677 580.000000
  L 521.935484 580.000000
  L 525.161290 580.000000
  L 528.387097 580.000000
  L 531.612903 580.000000
  L 534.838710 580.000000
  L 538.064516 580.000000
  L 541.290323 580.000000
  L 544.516129 580.000000
  L 547.741935 580.000000
  L 550.967742 580.000000
  L 554.193548 580.000000
  L 557.419355 580.000000
  L 560.645161 580.000000
  L 563.870968 580.000000
  L 567.096774 580.000000
  L 567.096774 123.836362
  L 563.870968 245.739617
  L 560.645161 224.039776
  L 557.419355 317.814095
  L 554.193548 182.177609
  L 550.967742 304.605315
  L 547.741935 235.227965
  L 544.516129 169.015943
  L 541.290323 311.371271
  L 538.064516 185.703225
  L 534.838710 224.039776
  L 531.612903 282.107468
  L 528.387097 264.962797
  L 525.161290 271.408445
  L 521.935484 282.107468
  L 518.709677 278.928221
  L 515.483871 264.962797
  L 512.258065 218.116975
  L 509.032258 286.092341
  L 505.806452 245.739617
  L 502.580645 199.358188
  L 499.354839 335.418878
  L 496.129032 227.427688
  L 492.903226 247.919004
  L 489.677419 169.883040
  L 486.451613 271.408445
  L 483.225806 355.526341
  L 480.000000 282.107468
  L 476.774194 263.506082
  L 473.548387 282.107468
  L 470.322581 311.371271
  L 467.096774 350.814987
  L 463.870968 297.491434
  L 460.645161 237.190582
  L 457.419355 305.684926
  L 454.193548 290.002253
  L 450.967742 311.371271
  L 447.741935 327.429160
  L 444.516129 372.586183
  L 441.290323 340.774983
  L 438.064516 297.491434
  L 434.838710 292.925288
  L 431.612903 286.092341
  L 428.387097 307.324592
  L 425.161290 333.135393
  L 421.935484 311.371271
  L 418.709677 297.491434
  L 415.483871 271.408445
  L 412.258065 333.135393
  L 409.032258 396.943753
  L 405.806452 282.107468
  L 402.580645 328.091999
  L 399.354839 283.754842
  L 396.129032 307.324592
  L 392.903226 311.650596
  L 389.677419 283.754842
  L 386.451613 299.449363
  L 383.225806 383.774505
  L 380.000000 292.925288
  L 376.774194 340.774983
  L 373.548387 355.526341
  L 370.322581 226.590424
  L 367.096774 263.506082
  L 363.870968 263.672728
  L 360.645161 333.135393
  L 357.419355 282.432192
  L 354.193548 351.445206
  L 350.967742 317.814095
  L 347.741935 307.324592
  L 344.516129 350.814987
  L 341.290323 351.445206
  L 338.064516 337.981518
  L 334.838710 323.956291
  L 331.612903 317.814095
  L 328.387097 296.025232
  L 325.161290 297.491434
  L 321.935484 329.818331
  L 318.709677 311.371271
  L 315.483871 290.019021
  L 312.258065 271.408445
  L 309.032258 351.445206
  L 305.806452 367.233321
  L 302.580645 359.620867
  L 299.354839 387.240975
  L 296.129032 333.135393
  L 292.903226 350.814987
  L 289.677419 292.925288
  L 286.451613 297.491434
  L 283.225806 323.956291
  L 280.000000 309.222376
  L 276.774194 383.774505
  L 273.548387 270.383687
  L 270.322581 344.793163
  L 267.096774 342.641681
  L 263.870968 333.135393
  L 260.645161 247.919004
  L 257.419355 383.774505
  L 254.193548 327.435253
  L 250.967742 301.788988
  L 247.741935 340.680445
  L 244.516129 335.418878
  L 241.290323 363.493805
  L 238.064516 327.435253
  L 234.838710 396.943753
  L 231.612903 299.449363
  L 228.387097 363.409908
  L 225.161290 393.819679
  L 221.935484 299.449363
  L 218.709677 255.758118
  L 215.483871 312.645249
  L 212.258065 363.493805
  L 209.032258 359.925402
  L 205.806452 360.048407
  L 202.580645 355.526341
  L 199.354839 322.689679
  L 196.129032 270.383687
  L 192.903226 383.774505
  L 189.677419 337.981518
  L 186.451613 355.526341
  L 183.225806 292.925288
  L 180.000000 355.607260
  L 176.774194 317.363434
  L 173.548387 301.788988
  L 170.322581 345.902249
  L 167.096774 333.135393
  L 163.870968 368.568423
  L 160.645161 322.839101
  L 157.419355 299.449363
  L 154.193548 311.650596
  L 150.967742 376.454432
  L 147.741935 408.459063
  L 144.516129 372.586183
  L 141.290323 277.215843
  L 138.064516 317.363434
  L 134.838710 309.222376
  L 131.612903 318.640989
  L 128.387097 328.091999
  L 125.161290 322.839101
  L 121.935484 276.429509
  L 118.709677 288.203546
  L 115.483871 335.388588
  L 112.258065 360.048407
  L 109.032258 363.493805
  L 105.806452 282.107468
  L 102.580645 360.048407
  L 99.354839 311.650596
  L 96.129032 355.607260
  L 92.903226 351.445206
  L 89.677419 290.019021
  L 86.451613 301.788988
  L 83.225806 374.338672
Z" fill="rgb(248,118,109)" fill-opacity="0.2"/>
<path d="M 83.225806 580.000000
  L 86.451613 580.000000
  L 89.677419 580.000000
  L 92.903226 580.000000
  L 96.129032 580.000000
  L 99.354839 580.000000
  L 102.580645 580.000000
  L 105.806452 580.000000
  L 109.032258 580.000000
  L 112.258065 580.000000
  L 115.483871 580.000000
  L 118.709677 580.000000
  L 121.935484 568.015412
  L 125.161290 580.000000
  L 128.387097 580.000000
  L 131.612903 580.000000
  L 134.838710 580.000000
  L 138.064516 580.000000
  L 141.290323 580.000000
  L 144.516129 580.000000
  L 147.741935 580.000000
  L 150.967742 580.000000
  L 154.193548 580.000000
  L 157.419355 580.000000
  L 160.645161 580.000000
  L 163.870968 580.000000
  L 167.096774 580.000000
  L 170.322581 580.000000
  L 173.548387 580.000000
  L 176.774194 580.000000
  L 180.000000 580.000000
  L 183.225806 580.000000
  L 186.451613 580.000000
  L 189.677419 580.000000
  L 192.903226 580.000000
  L 196.129032 580.000000
  L 199.354839 580.000000
  L 202.580645 580.000000
  L 205.806452 580.000000
  L 209.032258 580.000000
  L 212.258065 580.000000
  L 215.483871 580.000000
  L 218.709677 580.000000
  L 221.935484 580.000000
  L 225.161290 580.000000
  L 228.387097 580.000000
  L 231.612903 580.000000
  L 234.838710 580.000000
  L 238.064516 580.000000
  L 241.290323 580.000000
  L 244.516129 580.000000
  L 247.741935 576.575002
  L 250.967742 580.000000
  L 254.193548 580.000000
  L 257.419355 580.000000
  L 260.645161 580.000000
  L 263.870968 580.000000
  L 267.096774 580.000000
  L 270.322581 580.000000
  L 273.548387 580.000000
  L 276.774194 580.000000
  L 280.000000 580.000000
  L 283.225806 580.000000
  L 286.451613 580.000000
  L 289.677419 580.000000
  L 292.903226 580.000000
  L 296.129032 580.000000
  L 299.354839 580.000000
  L 302.580645 580.000000
  L 305.806452 580.000000
  L 309.032258 580.000000
  L 312.258065 580.000000
  L 315.483871 580.000000
  L 318.709677 580.000000
  L 321.935484 580.000000
  L 325.161290 580.000000
  L 328.387097 580.000000
  L 331.612903 580.000000
  L 334.838710 580.000000
  L 338.064516 580.000000
  L 341.290323 580.000000
  L 344.516129 580.000000
  L 347.741935 580.000000
  L 350.967742 580.000000
  L 354.193548 580.000000
  L 357.419355 580.000000
  L 360.645161 580.000000
  L 363.870968 580.000000
  L 367.096774 580.000000
  L 370.322581 580.000000
  L 373.548387 580.000000
  L 376.774194 580.000000
  L 380.000000 580.000000
  L 383.225806 580.000000
  L 386.451613 580.000000
  L 389.677419 580.000000
  L 392.903226 580.000000
  L 396.129032 580.000000
  L 399.354839 580.000000
  L 402.580645 580.000000
  L 405.806452 580.000000
  L 409.032258 580.000000
  L 412.258065 580.000000
  L 415.483871 580.000000
  L 418.709677 580.000000
  L 421.935484 580.000000
  L 425.161290 580.000000
  L 428.387097 580.000000
  L 431.612903 580.000000
  L 434.838710 580.000000
  L 438.064516 572.560893
  L 441.290323 580.000000
  L 444.516129 580.000000
  L 447.741935 580.000000
  L 450.967742 580.000000
  L 454.193548 580.000000
  L 457.419355 580.000000
  L 460.645161 580.000000
  L 463.870968 580.000000
  L 467.096774 580.000000
  L 470.322581 580.000000
  L 473.548387 580.000000
  L 476.774194 580.000000
  L 480.000000 580.000000
  L 483.225806 580.000000
  L 486.451613 580.000000
  L 489.677419 580.000000
  L 492.903226 580.000000
  L 496.129032 580.000000
  L 499.354839 580.000000
  L 502.580645 580.000000
  L 505.806452 580.000000
  L 509.032258 580.000000
  L 512.258065 580.000000
  L 515.483871 580.000000
  L 518.709677 580.000000
  L 521.935484 580.000000
  L 525.161290 580.000000
  L 528.387097 580.000000
  L 531.612903 580.000000
  L 534.838710 580.000000
  L 538.064516 580.000000
  L 541.290323 580.000000
  L 544.516129 580.000000
  L 547.741935 580.000000
  L 550.967742 580.000000
  L 554.193548 580.000000
  L 557.419355 580.000000
  L 560.645161 580.000000
  L 563.870968 580.000000
  L 563.870968 202.328043
  L 560.645161 217.098133
  L 557.419355 255.758118
  L 554.193548 271.408445
  L 550.967742 235.227965
  L 547.741935 245.739617
  L 544.516129 237.190582
  L 541.290323 154.967622
  L 538.064516 255.191442
  L 534.838710 212.410289
  L 531.612903 323.956291
  L 528.387097 312.645249
  L 525.161290 273.773454
  L 521.935484 199.358188
  L 518.709677 185.703225
  L 515.483871 217.098133
  L 512.258065 297.491434
  L 509.032258 255.191442
  L 505.806452 237.190582
  L 502.580645 304.605315
  L 499.354839 317.814095
  L 496.129032 246.431720
  L 492.903226 304.605315
  L 489.677419 231.057006
  L 486.451613 239.694879
  L 483.225806 194.532611
  L 480.000000 278.928221
  L 476.774194 304.605315
  L 473.548387 206.151803
  L 470.322581 246.431720
  L 467.096774 263.238387
  L 463.870968 255.191442
  L 460.645161 340.774983
  L 457.419355 329.818331
  L 454.193548 317.363434
  L 450.967742 342.641681
  L 447.741935 355.526341
  L 444.516129 297.491434
  L 441.290323 278.928221
  L 438.064516 132.554939
  L 434.838710 235.227965
  L 431.612903 322.839101
  L 428.387097 322.839101
  L 425.161290 297.491434
  L 421.935484 239.694879
  L 418.709677 342.641681
  L 415.483871 329.818331
  L 412.258065 323.956291
  L 409.032258 333.135393
  L 405.806452 304.605315
  L 402.580645 317.814095
  L 399.354839 332.009637
  L 396.129032 329.818331
  L 392.903226 368.568423
  L 389.677419 221.973766
  L 386.451613 278.928221
  L 383.225806 335.418878
  L 380.000000 304.605315
  L 376.774194 278.928221
  L 373.548387 340.774983
  L 370.322581 239.694879
  L 367.096774 323.956291
  L 363.870968 299.449363
  L 360.645161 278.928221
  L 357.419355 290.019021
  L 354.193548 364.392337
  L 350.967742 278.928221
  L 347.741935 387.240975
  L 344.516129 355.526341
  L 341.290323 307.324592
  L 338.064516 377.716716
  L 334.838710 278.928221
  L 331.612903 247.919004
  L 328.387097 283.754842
  L 325.161290 337.981518
  L 321.935484 317.363434
  L 318.709677 323.956291
  L 315.483871 290.019021
  L 312.258065 337.981518
  L 309.032258 332.009637
  L 305.806452 347.126345
  L 302.580645 360.048407
  L 299.354839 368.568423
  L 296.129032 383.774505
  L 292.903226 311.371271
  L 289.677419 304.605315
  L 286.451613 342.641681
  L 283.225806 372.586183
  L 280.000000 299.103411
  L 276.774194 360.048407
  L 273.548387 311.650596
  L 270.322581 312.645249
  L 267.096774 290.019021
  L 263.870968 307.324592
  L 260.645161 317.763175
  L 257.419355 335.418878
  L 254.193548 355.526341
  L 250.967742 347.126345
  L 247.741935 297.261676
  L 244.516129 322.689679
  L 241.290323 337.981518
  L 238.064516 355.607260
  L 234.838710 327.435253
  L 231.612903 283.754842
  L 228.387097 323.109878
  L 225.161290 359.620867
  L 221.935484 342.641681
  L 218.709677 322.689679
  L 215.483871 317.363434
  L 212.258065 347.126345
  L 209.032258 363.409908
  L 205.806452 347.126345
  L 202.580645 355.607260
  L 199.354839 317.363434
  L 196.129032 336.421890
  L 192.903226 342.641681
  L 189.677419 355.607260
  L 186.451613 372.586183
  L 183.225806 340.774983
  L 180.000000 360.048407
  L 176.774194 355.526341
  L 173.548387 332.009637
  L 170.322581 380.181343
  L 167.096774 380.985829
  L 163.870968 309.222376
  L 160.645161 368.568423
  L 157.419355 323.956291
  L 154.193548 322.839101
  L 150.967742 322.839101
  L 147.741935 348.767381
  L 144.516129 347.126345
  L 141.290323 342.641681
  L 138.064516 393.819679
  L 134.838710 333.135393
  L 131.612903 374.338672
  L 128.387097 329.818331
  L 125.161290 360.048407
  L 121.935484 286.564062
  L 118.709677 323.956291
  L 115.483871 359.925402
  L 112.258065 301.788988
  L 109.032258 355.607260
  L 105.806452 304.605315
  L 102.580645 290.019021
  L 99.354839 345.902249
  L 96.129032 347.126345
  L 92.903226 380.181343
  L 89.677419 327.435253
  L 86.451613 323.956291
  L 83.225806 249.806108
Z" fill="rgb(0,191,196)" fill-opacity="0.2"/>
<path d="M 83.225806 562.269504
  L 86.451613 533.703704
  L 89.677419 530.980392
  L 92.903226 559.674797
  L 96.129032 560.158730
  L 99.354839 554.747475
  L 102.580645 580.000000
  L 105.806452 580.000000
  L 109.032258 561.060606
  L 112.258065 580.000000
  L 115.483871 517.106918
  L 118.709677 514.210526
  L 121.935484 510.555556
  L 125.161290 556.190476
  L 128.387097 556.851852
  L 131.612903 523.181818
  L 134.838710 520.476190
  L 138.064516 555.490196
  L 141.290323 527.916667
  L 144.516129 580.000000
  L 147.741935 580.000000
  L 150.967742 580.000000
  L 154.193548 554.747475
  L 157.419355 553.118280
  L 160.645161 556.190476
  L 163.870968 580.000000
  L 167.096774 557.477477
  L 170.322581 580.000000
  L 173.548387 533.703704
  L 176.774194 555.490196
  L 180.000000 560.158730
  L 183.225806 552.222222
  L 186.451613 580.000000
  L 189.677419 558.070175
  L 192.903226 580.000000
  L 196.129032 526.236559
  L 199.354839 538.333333
  L 202.580645 580.000000
  L 205.806452 580.000000
  L 209.032258 545.986395
  L 212.258065 561.060606
  L 215.483871 536.140351
  L 218.709677 522.528736
  L 221.935484 553.118280
  L 225.161290 580.000000
  L 228.387097 546.666667
  L 231.612903 553.118280
  L 234.838710 580.000000
  L 238.064516 539.349593
  L 241.290323 561.060606
  L 244.516129 580.000000
  L 247.741935 542.121212
  L 250.967742 533.703704
  L 254.193548 539.349593
  L 257.419355 580.000000
  L 260.645161 520.476190
  L 263.870968 557.477477
  L 267.096774 558.632479
  L 270.322581 542.962963
  L 273.548387 526.236559
  L 276.774194 580.000000
  L 280.000000 520.476190
  L 283.225806 580.000000
  L 286.451613 580.000000
  L 289.677419 552.222222
  L 292.903226 580.000000
  L 296.129032 557.477477
  L 299.354839 580.000000
  L 302.580645 560.620155
  L 305.806452 561.481481
  L 309.032258 559.674797
  L 312.258065 549.135802
  L 315.483871 530.980392
  L 318.709677 580.000000
  L 321.935484 580.000000
  L 325.161290 580.000000
  L 328.387097 532.380952
  L 331.612903 580.000000
  L 334.838710 580.000000
  L 338.064516 558.070175
  L 341.290323 559.674797
  L 344.516129 580.000000
  L 347.741935 534.954955
  L 350.967742 580.000000
  L 354.193548 559.674797
  L 357.419355 512.432432
  L 360.645161 557.477477
  L 363.870968 506.470588
  L 367.096774 547.948718
  L 370.322581 493.793103
  L 373.548387 580.000000
  L 376.774194 580.000000
  L 380.000000 552.222222
  L 383.225806 580.000000
  L 386.451613 553.118280
  L 389.677419 529.494949
  L 392.903226 554.747475
  L 396.129032 534.954955
  L 399.354839 529.494949
  L 402.580645 556.851852
  L 405.806452 580.000000
  L 409.032258 580.000000
  L 412.258065 557.477477
  L 415.483871 549.135802
  L 418.709677 580.000000
  L 421.935484 580.000000
  L 425.161290 557.477477
  L 428.387097 534.954955
  L 431.612903 551.264368
  L 434.838710 552.222222
  L 438.064516 580.000000
  L 441.290323 580.000000
  L 444.516129 580.000000
  L 447.741935 525.652174
  L 450.967742 580.000000
  L 454.193548 580.000000
  L 457.419355 553.958333
  L 460.645161 543.768116
  L 463.870968 580.000000
  L 467.096774 580.000000
  L 470.322581 580.000000
  L 473.548387 580.000000
  L 476.774194 547.948718
  L 480.000000 580.000000
  L 483.225806 580.000000
  L 486.451613 549.135802
  L 489.677419 451.794872
  L 492.903226 520.476190
  L 496.129032 542.121212
  L 499.354839 580.000000
  L 502.580645 580.000000
  L 505.806452 580.000000
  L 509.032258 551.264368
  L 512.258065 490.714286
  L 515.483871 580.000000
  L 518.709677 550.238095
  L 521.935484 580.000000
  L 525.161290 549.135802
  L 528.387097 580.000000
  L 531.612903 580.000000
  L 534.838710 580.000000
  L 538.064516 580.000000
  L 541.290323 580.000000
  L 544.516129 530.980392
  L 547.741935 580.000000
  L 550.967742 580.000000
  L 554.193548 533.703704
  L 557.419355 580.000000
  L 560.645161 580.000000
  L 563.870968 580.000000
  L 567.096774 520.476190
" stroke="rgb(248,118,109)" stroke-width="2" fill-opacity="0"/>
<path d="M 83.225806 501.875000
  L 86.451613 580.000000
  L 89.677419 539.349593
  L 92.903226 580.000000
  L 96.129032 559.166667
  L 99.354839 580.000000
  L 102.580645 530.980392
  L 105.806452 580.000000
  L 109.032258 560.158730
  L 112.258065 533.703704
  L 115.483871 545.986395
  L 118.709677 580.000000
  L 121.935484 489.420290
  L 125.161290 580.000000
  L 128.387097 580.000000
  L 131.612903 562.269504
  L 134.838710 557.477477
  L 138.064516 580.000000
  L 141.290323 558.632479
  L 144.516129 559.166667
  L 147.741935 543.768116
  L 150.967742 556.190476
  L 154.193548 556.190476
  L 157.419355 580.000000
  L 160.645161 580.000000
  L 163.870968 520.476190
  L 167.096774 562.993197
  L 170.322581 580.000000
  L 173.548387 540.317460
  L 176.774194 580.000000
  L 180.000000 580.000000
  L 183.225806 580.000000
  L 186.451613 580.000000
  L 189.677419 560.158730
  L 192.903226 558.632479
  L 196.129032 541.240310
  L 199.354839 555.490196
  L 202.580645 560.158730
  L 205.806452 559.166667
  L 209.032258 546.666667
  L 212.258065 559.166667
  L 215.483871 555.490196
  L 218.709677 538.333333
  L 221.935484 558.632479
  L 225.161290 560.620155
  L 228.387097 524.444444
  L 231.612903 529.494949
  L 234.838710 539.349593
  L 238.064516 560.158730
  L 241.290323 558.070175
  L 244.516129 538.333333
  L 247.741935 504.242424
  L 250.967742 559.166667
  L 254.193548 580.000000
  L 257.419355 580.000000
  L 260.645161 537.264957
  L 263.870968 534.954955
  L 267.096774 530.980392
  L 270.322581 536.140351
  L 273.548387 554.747475
  L 276.774194 580.000000
  L 280.000000 517.500000
  L 283.225806 580.000000
  L 286.451613 558.632479
  L 289.677419 580.000000
  L 292.903226 580.000000
  L 296.129032 580.000000
  L 299.354839 580.000000
  L 302.580645 580.000000
  L 305.806452 559.166667
  L 309.032258 540.317460
  L 312.258065 558.070175
  L 315.483871 530.980392
  L 318.709677 580.000000
  L 321.935484 555.490196
  L 325.161290 558.070175
  L 328.387097 529.494949
  L 331.612903 520.476190
  L 334.838710 550.238095
  L 338.064516 562.638889
  L 341.290323 534.954955
  L 344.516129 580.000000
  L 347.741935 580.000000
  L 350.967742 550.238095
  L 354.193548 580.000000
  L 357.419355 530.980392
  L 360.645161 550.238095
  L 363.870968 553.118280
  L 367.096774 580.000000
  L 370.322581 518.271605
  L 373.548387 580.000000
  L 376.774194 550.238095
  L 380.000000 580.000000
  L 383.225806 580.000000
  L 386.451613 550.238095
  L 389.677419 513.333333
  L 392.903226 580.000000
  L 396.129032 580.000000
  L 399.354839 540.317460
  L 402.580645 580.000000
  L 405.806452 580.000000
  L 409.032258 557.477477
  L 412.258065 580.000000
  L 415.483871 580.000000
  L 418.709677 558.632479
  L 421.935484 518.271605
  L 425.161290 580.000000
  L 428.387097 556.190476
  L 431.612903 556.190476
  L 434.838710 580.000000
  L 438.064516 455.000000
  L 441.290323 550.238095
  L 444.516129 580.000000
  L 447.741935 580.000000
  L 450.967742 558.632479
  L 454.193548 555.490196
  L 457.419355 580.000000
  L 460.645161 580.000000
  L 463.870968 546.666667
  L 467.096774 524.444444
  L 470.322581 545.277778
  L 473.548387 538.333333
  L 476.774194 580.000000
  L 480.000000 550.238095
  L 483.225806 536.140351
  L 486.451613 518.271605
  L 489.677419 515.897436
  L 492.903226 580.000000
  L 496.129032 545.277778
  L 499.354839 580.000000
  L 502.580645 580.000000
  L 505.806452 543.768116
  L 509.032258 546.666667
  L 512.258065 580.000000
  L 515.483871 540.317460
  L 518.709677 580.000000
  L 521.935484 580.000000
  L 525.161290 580.000000
  L 528.387097 536.140351
  L 531.612903 580.000000
  L 534.838710 510.555556
  L 538.064516 546.666667
  L 541.290323 527.916667
  L 544.516129 543.768116
  L 547.741935 580.000000
  L 550.967742 580.000000
  L 554.193548 549.135802
  L 557.419355 522.528736
  L 560.645161 540.317460
  L 563.870968 507.536232
" stroke="rgb(0,191,196)" stroke-width="2" fill-opacity="0"/>
<rect x="590" y="310" width="20" height="20" fill="rgb(248,118,109)" />
<text x="615" y="320" text-anchor="start" dominant-baseline="middle">#1</text>
<rect x="590" y="330" width="20" height="20" fill="rgb(0,191,196)" />
<text x="615" y="340" text-anchor="start" dominant-baseline="middle">#2</text>
</svg>
