<svg height="660" width="660"
    xmlns="http://www.w3.org/2000/svg"
    xmlns:xlink="http://www.w3.org/1999/xlink"
    xmlns:ev="http://www.w3.org/2001/xml-events">
<title>Original Top Strand</title>
<rect x="0" y="0" width="660" height="660" fill="white" />
<text x="330" y="20" text-anchor="middle">Original Top Strand ABLG-47625_chn_OT.svg genome_hic_scaffold_1_RagTag CHN </text>
<line x1="80" y1="80" x2="80" y2="580" stroke="black" />
<line x1="80" y1="580" x2="580" y2="580" stroke="black" />
<text x="15" y="330" transform="rotate(270 15, 330)" text-anchor="middle" dominant-baseline="text-before-edge">CHG/CHH Methylation %</text>
<text x="330" y="620" text-anchor="middle">Position along mapped read (5'->3' of + strand)</text>
<line x1="80" y1="580" x2="80" y2="585" stroke="black" />
<text x="80" y="600" text-anchor="middle">0</text>
<line x1="112.258065" y1="80" x2="112.258065" y2="580" stroke-dasharray="5 5" stroke="grey" />
<line x1="112.258065" y1="580" x2="112.258065" y2="585" stroke="black" />
<text x="112.258065" y="600" text-anchor="middle">10</text>
<line x1="144.516129" y1="80" x2="144.516129" y2="580" stroke-dasharray="5 5" stroke="grey" />
<line x1="144.516129" y1="580" x2="144.516129" y2="585" stroke="black" />
<text x="144.516129" y="600" text-anchor="middle">20</text>
<line x1="176.774194" y1="80" x2="176.774194" y2="580" stroke-dasharray="5 5" stroke="grey" />
<line x1="176.774194" y1="580" x2="176.774194" y2="585" stroke="black" />
<text x="176.774194" y="600" text-anchor="middle">30</text>
<line x1="209.032258" y1="80" x2="209.032258" y2="580" stroke-dasharray="5 5" stroke="grey" />
<line x1="209.032258" y1="580" x2="209.032258" y2="585" stroke="black" />
<text x="209.032258" y="600" text-anchor="middle">40</text>
<line x1="241.290323" y1="80" x2="241.290323" y2="580" stroke-dasharray="5 5" stroke="grey" />
<line x1="241.290323" y1="580" x2="241.290323" y2="585" stroke="black" />
<text x="241.290323" y="600" text-anchor="middle">50</text>
<line x1="273.548387" y1="80" x2="273.548387" y2="580" stroke-dasharray="5 5" stroke="grey" />
<line x1="273.548387" y1="580" x2="273.548387" y2="585" stroke="black" />
<text x="273.548387" y="600" text-anchor="middle">60</text>
<line x1="305.806452" y1="80" x2="305.806452" y2="580" stroke-dasharray="5 5" stroke="grey" />
<line x1="305.806452" y1="580" x2="305.806452" y2="585" stroke="black" />
<text x="305.806452" y="600" text-anchor="middle">70</text>
<line x1="338.064516" y1="80" x2="338.064516" y2="580" stroke-dasharray="5 5" stroke="grey" />
<line x1="338.064516" y1="580" x2="338.064516" y2="585" stroke="black" />
<text x="338.064516" y="600" text-anchor="middle">80</text>
<line x1="370.322581" y1="80" x2="370.322581" y2="580" stroke-dasharray="5 5" stroke="grey" />
<line x1="370.322581" y1="580" x2="370.322581" y2="585" stroke="black" />
<text x="370.322581" y="600" text-anchor="middle">90</text>
<line x1="402.580645" y1="80" x2="402.580645" y2="580" stroke-dasharray="5 5" stroke="grey" />
<line x1="402.580645" y1="580" x2="402.580645" y2="585" stroke="black" />
<text x="402.580645" y="600" text-anchor="middle">100</text>
<line x1="434.838710" y1="80" x2="434.838710" y2="580" stroke-dasharray="5 5" stroke="grey" />
<line x1="434.838710" y1="580" x2="434.838710" y2="585" stroke="black" />
<text x="434.838710" y="600" text-anchor="middle">110</text>
<line x1="467.096774" y1="80" x2="467.096774" y2="580" stroke-dasharray="5 5" stroke="grey" />
<line x1="467.096774" y1="580" x2="467.096774" y2="585" stroke="black" />
<text x="467.096774" y="600" text-anchor="middle">120</text>
<line x1="499.354839" y1="80" x2="499.354839" y2="580" stroke-dasharray="5 5" stroke="grey" />
<line x1="499.354839" y1="580" x2="499.354839" y2="585" stroke="black" />
<text x="499.354839" y="600" text-anchor="middle">130</text>
<line x1="531.612903" y1="80" x2="531.612903" y2="580" stroke-dasharray="5 5" stroke="grey" />
<line x1="531.612903" y1="580" x2="531.612903" y2="585" stroke="black" />
<text x="531.612903" y="600" text-anchor="middle">140</text>
<line x1="563.870968" y1="80" x2="563.870968" y2="580" stroke-dasharray="5 5" stroke="grey" />
<line x1="563.870968" y1="580" x2="563.870968" y2="585" stroke="black" />
<text x="563.870968" y="600" text-anchor="middle">150</text>
<line x1="80" y1="580.000000" x2="75" y2="580.000000" stroke="black" />
<text x="55" y="580.000000" text-anchor="middle" dominant-baseline="middle">0.00</text>
<line x1="80" y1="541.538462" x2="75" y2="541.538462" stroke="black" />
<text x="55" y="541.538462" text-anchor="middle" dominant-baseline="middle">0.05</text>
<line x1="80" y1="503.076923" x2="75" y2="503.076923" stroke="black" />
<text x="55" y="503.076923" text-anchor="middle" dominant-baseline="middle">0.10</text>
<line x1="80" y1="464.615385" x2="75" y2="464.615385" stroke="black" />
<text x="55" y="464.615385" text-anchor="middle" dominant-baseline="middle">0.15</text>
<line x1="80" y1="426.153846" x2="75" y2="426.153846" stroke="black" />
<text x="55" y="426.153846" text-anchor="middle" dominant-baseline="middle">0.20</text>
<line x1="80" y1="387.692308" x2="75" y2="387.692308" stroke="black" />
<text x="55" y="387.692308" text-anchor="middle" dominant-baseline="middle">0.25</text>
<line x1="80" y1="349.230769" x2="75" y2="349.230769" stroke="black" />
<text x="55" y="349.230769" text-anchor="middle" dominant-baseline="middle">0.30</text>
<line x1="80" y1="310.769231" x2="75" y2="310.769231" stroke="black" />
<text x="55" y="310.769231" text-anchor="middle" dominant-baseline="middle">0.35</text>
<line x1="80" y1="272.307692" x2="75" y2="272.307692" stroke="black" />
<text x="55" y="272.307692" text-anchor="middle" dominant-baseline="middle">0.40</text>
<line x1="80" y1="233.846154" x2="75" y2="233.846154" stroke="black" />
<text x="55" y="233.846154" text-anchor="middle" dominant-baseline="middle">0.45</text>
<line x1="80" y1="195.384615" x2="75" y2="195.384615" stroke="black" />
<text x="55" y="195.384615" text-anchor="middle" dominant-baseline="middle">0.50</text>
<line x1="80" y1="156.923077" x2="75" y2="156.923077" stroke="black" />
<text x="55" y="156.923077" text-anchor="middle" dominant-baseline="middle">0.55</text>
<line x1="80" y1="118.461538" x2="75" y2="118.461538" stroke="black" />
<text x="55" y="118.461538" text-anchor="middle" dominant-baseline="middle">0.60</text>
<line x1="80" y1="80.000000" x2="75" y2="80.000000" stroke="black" />
<text x="55" y="80.000000" text-anchor="middle" dominant-baseline="middle">0.65</text>
<path d="M 83.225806 580.000000
  L 86.451613 573.045649
  L 89.677419 580.000000
  L 92.903226 574.594479
  L 96.129032 580.000000
  L 99.354839 580.000000
  L 102.580645 569.488248
  L 105.806452 580.000000
  L 109.032258 580.000000
  L 112.258065 580.000000
  L 115.483871 580.000000
  L 118.709677 580.000000
  L 121.935484 580.000000
  L 125.161290 580.000000
  L 128.387097 580.000000
  L 131.612903 580.000000
  L 134.838710 580.000000
  L 138.064516 580.000000
  L 141.290323 580.000000
  L 144.516129 580.000000
  L 147.741935 580.000000
  L 150.967742 580.000000
  L 154.193548 580.000000
  L 157.419355 580.000000
  L 160.645161 580.000000
  L 163.870968 580.000000
  L 167.096774 580.000000
  L 170.322581 580.000000
  L 173.548387 552.056047
  L 176.774194 580.000000
  L 180.000000 580.000000
  L 183.225806 580.000000
  L 186.451613 580.000000
  L 189.677419 580.000000
  L 192.903226 580.000000
  L 196.129032 580.000000
  L 199.354839 580.000000
  L 202.580645 580.000000
  L 205.806452 580.000000
  L 209.032258 576.838463
  L 212.258065 580.000000
  L 215.483871 580.000000
  L 218.709677 580.000000
  L 221.935484 580.000000
  L 225.161290 580.000000
  L 228.387097 580.000000
  L 231.612903 580.000000
  L 234.838710 580.000000
  L 238.064516 580.000000
  L 241.290323 580.000000
  L 244.516129 580.000000
  L 247.741935 565.695155
  L 250.967742 580.000000
  L 254.193548 580.000000
  L 257.419355 580.000000
  L 260.645161 577.755859
  L 263.870968 580.000000
  L 267.096774 580.000000
  L 270.322581 580.000000
  L 273.548387 580.000000
  L 276.774194 580.000000
  L 280.000000 580.000000
  L 283.225806 580.000000
  L 286.451613 580.000000
  L 289.677419 580.000000
  L 292.903226 580.000000
  L 296.129032 580.000000
  L 299.354839 580.000000
  L 302.580645 580.000000
  L 305.806452 580.000000
  L 309.032258 573.045649
  L 312.258065 580.000000
  L 315.483871 580.000000
  L 318.709677 580.000000
  L 321.935484 580.000000
  L 325.161290 580.000000
  L 328.387097 580.000000
  L 331.612903 580.000000
  L 334.838710 580.000000
  L 338.064516 580.000000
  L 341.290323 580.000000
  L 344.516129 580.000000
  L 347.741935 580.000000
  L 350.967742 580.000000
  L 354.193548 580.000000
  L 357.419355 580.000000
  L 360.645161 580.000000
  L 363.870968 580.000000
  L 367.096774 580.000000
  L 370.322581 580.000000
  L 373.548387 580.000000
  L 376.774194 580.000000
  L 380.000000 580.000000
  L 383.225806 580.000000
  L 386.451613 571.088241
  L 389.677419 580.000000
  L 392.903226 580.000000
  L 396.129032 580.000000
  L 399.354839 580.000000
  L 402.580645 580.000000
  L 405.806452 580.000000
  L 409.032258 580.000000
  L 412.258065 580.000000
  L 415.483871 580.000000
  L 418.709677 580.000000
  L 421.935484 580.000000
  L 425.161290 580.000000
  L 428.387097 580.000000
  L 431.612903 580.000000
  L 434.838710 580.000000
  L 438.064516 580.000000
  L 441.290323 578.610095
  L 444.516129 580.000000
  L 447.741935 580.000000
  L 450.967742 580.000000
  L 454.193548 580.000000
  L 457.419355 555.116674
  L 460.645161 580.000000
  L 463.870968 578.610095
  L 467.096774 580.000000
  L 470.322581 574.505449
  L 473.548387 580.000000
  L 476.774194 580.000000
  L 480.000000 580.000000
  L 483.225806 580.000000
  L 486.451613 580.000000
  L 489.677419 580.000000
  L 492.903226 580.000000
  L 496.129032 580.000000
  L 499.354839 580.000000
  L 502.580645 558.879675
  L 505.806452 575.719906
  L 509.032258 580.000000
  L 512.258065 580.000000
  L 515.483871 580.000000
  L 518.709677 580.000000
  L 521.935484 580.000000
  L 525.161290 580.000000
  L 528.387097 580.000000
  L 531.612903 580.000000
  L 534.838710 580.000000
  L 538.064516 580.000000
  L 541.290323 580.000000
  L 544.516129 580.000000
  L 547.741935 580.000000
  L 550.967742 580.000000
  L 554.193548 580.000000
  L 557.419355 580.000000
  L 560.645161 580.000000
  L 563.870968 580.000000
  L 567.096774 580.000000
  L 567.096774 240.407733
  L 563.870968 212.779331
  L 560.645161 251.421332
  L 557.419355 271.451954
  L 554.193548 254.548635
  L 550.967742 224.183948
  L 547.741935 228.638327
  L 544.516129 251.421332
  L 541.290323 272.090818
  L 538.064516 211.167851
  L 534.838710 280.699801
  L 531.612903 251.421332
  L 528.387097 221.554786
  L 525.161290 253.775776
  L 521.935484 280.176715
  L 518.709677 234.909357
  L 515.483871 251.421332
  L 512.258065 261.748891
  L 509.032258 272.090818
  L 505.806452 189.968752
  L 502.580645 227.034048
  L 499.354839 305.022278
  L 496.129032 312.309772
  L 492.903226 272.090818
  L 489.677419 272.090818
  L 486.451613 240.407733
  L 483.225806 315.007958
  L 480.000000 308.700623
  L 476.774194 287.851768
  L 473.548387 249.514246
  L 470.322581 178.794221
  L 467.096774 240.686421
  L 463.870968 220.095989
  L 460.645161 254.548635
  L 457.419355 202.619109
  L 454.193548 221.554786
  L 450.967742 343.651961
  L 447.741935 342.620709
  L 444.516129 321.030181
  L 441.290323 220.095989
  L 438.064516 315.007958
  L 434.838710 297.329342
  L 431.612903 315.007958
  L 428.387097 325.789522
  L 425.161290 305.022278
  L 421.935484 273.463696
  L 418.709677 323.189836
  L 415.483871 272.090818
  L 412.258065 297.329342
  L 409.032258 343.651961
  L 405.806452 273.463696
  L 402.580645 349.063074
  L 399.354839 231.379732
  L 396.129032 295.146257
  L 392.903226 323.189836
  L 389.677419 249.514246
  L 386.451613 250.747709
  L 383.225806 347.469538
  L 380.000000 363.909769
  L 376.774194 312.309772
  L 373.548387 384.832390
  L 370.322581 261.243060
  L 367.096774 315.007958
  L 363.870968 240.686421
  L 360.645161 287.604665
  L 357.419355 337.566246
  L 354.193548 347.469538
  L 350.967742 321.030181
  L 347.741935 257.898775
  L 344.516129 317.869445
  L 341.290323 287.851768
  L 338.064516 253.775776
  L 334.838710 265.872196
  L 331.612903 342.482781
  L 328.387097 346.863310
  L 325.161290 280.699801
  L 321.935484 280.176715
  L 318.709677 359.176907
  L 315.483871 328.299623
  L 312.258065 342.620709
  L 309.032258 270.927461
  L 305.806452 272.090818
  L 302.580645 308.700623
  L 299.354839 365.039703
  L 296.129032 273.463696
  L 292.903226 237.752672
  L 289.677419 280.699801
  L 286.451613 257.898775
  L 283.225806 281.741771
  L 280.000000 294.200326
  L 276.774194 328.299623
  L 273.548387 346.857687
  L 270.322581 299.781085
  L 267.096774 306.542931
  L 263.870968 312.325250
  L 260.645161 210.576434
  L 257.419355 337.566246
  L 254.193548 317.869445
  L 250.967742 356.598324
  L 247.741935 279.097843
  L 244.516129 328.299623
  L 241.290323 302.087589
  L 238.064516 280.699801
  L 234.838710 347.469538
  L 231.612903 294.013626
  L 228.387097 320.710841
  L 225.161290 380.148128
  L 221.935484 294.013626
  L 218.709677 368.444603
  L 215.483871 398.868774
  L 212.258065 299.781085
  L 209.032258 319.010778
  L 205.806452 395.552009
  L 202.580645 317.869445
  L 199.354839 302.087589
  L 196.129032 321.030181
  L 192.903226 287.604665
  L 189.677419 372.793545
  L 186.451613 315.007958
  L 183.225806 328.299623
  L 180.000000 321.030181
  L 176.774194 332.292857
  L 173.548387 184.411425
  L 170.322581 315.775319
  L 167.096774 388.541092
  L 163.870968 337.982242
  L 160.645161 320.710841
  L 157.419355 398.868774
  L 154.193548 372.793545
  L 150.967742 408.141242
  L 147.741935 317.869445
  L 144.516129 360.900013
  L 141.290323 392.111783
  L 138.064516 287.604665
  L 134.838710 342.620709
  L 131.612903 337.566246
  L 128.387097 300.506932
  L 125.161290 302.087589
  L 121.935484 265.872196
  L 118.709677 280.699801
  L 115.483871 332.292857
  L 112.258065 325.789522
  L 109.032258 261.243060
  L 105.806452 354.232811
  L 102.580645 235.782226
  L 99.354839 342.620709
  L 96.129032 368.444603
  L 92.903226 288.795545
  L 89.677419 368.444603
  L 86.451613 270.927461
  L 83.225806 312.309772
Z" fill="rgb(248,118,109)" fill-opacity="0.2"/>
<path d="M 83.225806 580.000000
  L 86.451613 580.000000
  L 89.677419 580.000000
  L 92.903226 580.000000
  L 96.129032 580.000000
  L 99.354839 580.000000
  L 102.580645 580.000000
  L 105.806452 580.000000
  L 109.032258 580.000000
  L 112.258065 580.000000
  L 115.483871 580.000000
  L 118.709677 580.000000
  L 121.935484 580.000000
  L 125.161290 580.000000
  L 128.387097 580.000000
  L 131.612903 576.192743
  L 134.838710 580.000000
  L 138.064516 580.000000
  L 141.290323 580.000000
  L 144.516129 580.000000
  L 147.741935 580.000000
  L 150.967742 580.000000
  L 154.193548 580.000000
  L 157.419355 580.000000
  L 160.645161 580.000000
  L 163.870968 580.000000
  L 167.096774 580.000000
  L 170.322581 580.000000
  L 173.548387 557.246552
  L 176.774194 580.000000
  L 180.000000 580.000000
  L 183.225806 580.000000
  L 186.451613 580.000000
  L 189.677419 580.000000
  L 192.903226 580.000000
  L 196.129032 580.000000
  L 199.354839 580.000000
  L 202.580645 580.000000
  L 205.806452 580.000000
  L 209.032258 577.402594
  L 212.258065 580.000000
  L 215.483871 580.000000
  L 218.709677 580.000000
  L 221.935484 580.000000
  L 225.161290 580.000000
  L 228.387097 580.000000
  L 231.612903 580.000000
  L 234.838710 580.000000
  L 238.064516 580.000000
  L 241.290323 580.000000
  L 244.516129 580.000000
  L 247.741935 580.000000
  L 250.967742 580.000000
  L 254.193548 580.000000
  L 257.419355 580.000000
  L 260.645161 580.000000
  L 263.870968 580.000000
  L 267.096774 580.000000
  L 270.322581 580.000000
  L 273.548387 580.000000
  L 276.774194 580.000000
  L 280.000000 580.000000
  L 283.225806 580.000000
  L 286.451613 577.755859
  L 289.677419 580.000000
  L 292.903226 580.000000
  L 296.129032 580.000000
  L 299.354839 580.000000
  L 302.580645 580.000000
  L 305.806452 580.000000
  L 309.032258 580.000000
  L 312.258065 580.000000
  L 315.483871 580.000000
  L 318.709677 580.000000
  L 321.935484 580.000000
  L 325.161290 566.501760
  L 328.387097 580.000000
  L 331.612903 580.000000
  L 334.838710 574.505449
  L 338.064516 580.000000
  L 341.290323 580.000000
  L 344.516129 580.000000
  L 347.741935 580.000000
  L 350.967742 580.000000
  L 354.193548 580.000000
  L 357.419355 580.000000
  L 360.645161 580.000000
  L 363.870968 580.000000
  L 367.096774 580.000000
  L 370.322581 559.954756
  L 373.548387 580.000000
  L 376.774194 580.000000
  L 380.000000 580.000000
  L 383.225806 580.000000
  L 386.451613 580.000000
  L 389.677419 580.000000
  L 392.903226 580.000000
  L 396.129032 580.000000
  L 399.354839 580.000000
  L 402.580645 580.000000
  L 405.806452 580.000000
  L 409.032258 580.000000
  L 412.258065 580.000000
  L 415.483871 580.000000
  L 418.709677 580.000000
  L 421.935484 580.000000
  L 425.161290 580.000000
  L 428.387097 580.000000
  L 431.612903 580.000000
  L 434.838710 580.000000
  L 438.064516 580.000000
  L 441.290323 564.002880
  L 444.516129 580.000000
  L 447.741935 577.755859
  L 450.967742 580.000000
  L 454.193548 547.468921
  L 457.419355 580.000000
  L 460.645161 580.000000
  L 463.870968 580.000000
  L 467.096774 580.000000
  L 470.322581 580.000000
  L 473.548387 580.000000
  L 476.774194 580.000000
  L 480.000000 580.000000
  L 483.225806 580.000000
  L 486.451613 580.000000
  L 489.677419 580.000000
  L 492.903226 580.000000
  L 496.129032 580.000000
  L 499.354839 580.000000
  L 502.580645 580.000000
  L 505.806452 580.000000
  L 509.032258 580.000000
  L 512.258065 580.000000
  L 515.483871 580.000000
  L 518.709677 580.000000
  L 521.935484 580.000000
  L 525.161290 579.373003
  L 528.387097 580.000000
  L 531.612903 580.000000
  L 534.838710 580.000000
  L 538.064516 580.000000
  L 541.290323 580.000000
  L 544.516129 580.000000
  L 547.741935 580.000000
  L 550.967742 580.000000
  L 554.193548 580.000000
  L 557.419355 580.000000
  L 560.645161 580.000000
  L 563.870968 580.000000
  L 567.096774 580.000000
  L 567.096774 107.181218
  L 563.870968 280.699801
  L 560.645161 261.748891
  L 557.419355 245.013662
  L 554.193548 224.183948
  L 550.967742 315.007958
  L 547.741935 202.503352
  L 544.516129 240.686421
  L 541.290323 271.451954
  L 538.064516 173.792671
  L 534.838710 200.630101
  L 531.612903 287.851768
  L 528.387097 315.007958
  L 525.161290 229.143502
  L 521.935484 261.748891
  L 518.709677 319.222862
  L 515.483871 261.748891
  L 512.258065 295.146257
  L 509.032258 234.909357
  L 505.806452 306.542931
  L 502.580645 231.379732
  L 499.354839 263.560537
  L 496.129032 326.786085
  L 492.903226 280.176715
  L 489.677419 272.090818
  L 486.451613 200.630101
  L 483.225806 280.699801
  L 480.000000 287.851768
  L 476.774194 326.786085
  L 473.548387 261.243060
  L 470.322581 305.022278
  L 467.096774 257.898775
  L 463.870968 337.566246
  L 460.645161 280.176715
  L 457.419355 272.090818
  L 454.193548 211.877613
  L 450.967742 332.035020
  L 447.741935 210.576434
  L 444.516129 342.482781
  L 441.290323 191.762483
  L 438.064516 305.022278
  L 434.838710 257.898775
  L 431.612903 343.651961
  L 428.387097 315.007958
  L 425.161290 257.898775
  L 421.935484 245.954131
  L 418.709677 294.013626
  L 415.483871 253.775776
  L 412.258065 272.090818
  L 409.032258 273.463696
  L 405.806452 263.560537
  L 402.580645 310.649427
  L 399.354839 332.292857
  L 396.129032 317.869445
  L 392.903226 321.030181
  L 389.677419 323.189836
  L 386.451613 308.700623
  L 383.225806 356.598324
  L 380.000000 342.620709
  L 376.774194 249.514246
  L 373.548387 337.566246
  L 370.322581 234.494379
  L 367.096774 280.699801
  L 363.870968 221.554786
  L 360.645161 368.444603
  L 357.419355 352.124978
  L 354.193548 365.039703
  L 350.967742 320.710841
  L 347.741935 332.292857
  L 344.516129 356.598324
  L 341.290323 299.781085
  L 338.064516 326.786085
  L 334.838710 178.794221
  L 331.612903 354.444166
  L 328.387097 308.700623
  L 325.161290 210.636093
  L 321.935484 280.176715
  L 318.709677 352.124978
  L 315.483871 365.039703
  L 312.258065 300.506932
  L 309.032258 333.211000
  L 305.806452 280.176715
  L 302.580645 347.469538
  L 299.354839 347.469538
  L 296.129032 306.542931
  L 292.903226 306.542931
  L 289.677419 261.243060
  L 286.451613 210.576434
  L 283.225806 281.741771
  L 280.000000 312.325250
  L 276.774194 294.200326
  L 273.548387 249.514246
  L 270.322581 281.741771
  L 267.096774 306.542931
  L 263.870968 359.176907
  L 260.645161 288.005595
  L 257.419355 300.506932
  L 254.193548 312.325250
  L 250.967742 342.620709
  L 247.741935 328.299623
  L 244.516129 300.506932
  L 241.290323 312.325250
  L 238.064516 299.781085
  L 234.838710 372.868240
  L 231.612903 312.309772
  L 228.387097 273.463696
  L 225.161290 330.051424
  L 221.935484 288.005595
  L 218.709677 359.176907
  L 215.483871 325.466338
  L 212.258065 342.620709
  L 209.032258 327.743218
  L 205.806452 365.039703
  L 202.580645 330.051424
  L 199.354839 287.851768
  L 196.129032 342.482781
  L 192.903226 275.205638
  L 189.677419 325.789522
  L 186.451613 295.146257
  L 183.225806 347.469538
  L 180.000000 315.007958
  L 176.774194 280.176715
  L 173.548387 147.715726
  L 170.322581 352.124978
  L 167.096774 416.512075
  L 163.870968 365.039703
  L 160.645161 315.775319
  L 157.419355 411.025002
  L 154.193548 372.868240
  L 150.967742 395.552009
  L 147.741935 294.013626
  L 144.516129 384.832390
  L 141.290323 380.977541
  L 138.064516 350.713406
  L 134.838710 306.542931
  L 131.612903 309.656009
  L 128.387097 312.325250
  L 125.161290 312.309772
  L 121.935484 332.292857
  L 118.709677 294.013626
  L 115.483871 363.909769
  L 112.258065 349.063074
  L 109.032258 302.087589
  L 105.806452 342.620709
  L 102.580645 268.379247
  L 99.354839 376.573108
  L 96.129032 354.232811
  L 92.903226 315.775319
  L 89.677419 308.700623
  L 86.451613 351.085819
  L 83.225806 271.451954
Z" fill="rgb(0,191,196)" fill-opacity="0.2"/>
<path d="M 83.225806 580.000000
  L 86.451613 492.087912
  L 89.677419 580.000000
  L 92.903226 499.028340
  L 96.129032 580.000000
  L 99.354839 558.021978
  L 102.580645 477.435897
  L 105.806452 580.000000
  L 109.032258 503.076923
  L 112.258065 580.000000
  L 115.483871 556.689977
  L 118.709677 526.949602
  L 121.935484 523.019943
  L 125.161290 552.527473
  L 128.387097 531.923077
  L 131.612903 557.375566
  L 134.838710 558.021978
  L 138.064516 528.717949
  L 141.290323 580.000000
  L 144.516129 560.276134
  L 147.741935 536.043956
  L 150.967742 580.000000
  L 154.193548 580.000000
  L 157.419355 580.000000
  L 160.645161 522.307692
  L 163.870968 580.000000
  L 167.096774 580.000000
  L 170.322581 520.828402
  L 173.548387 437.549858
  L 176.774194 556.689977
  L 180.000000 555.186104
  L 183.225806 538.419958
  L 186.451613 554.358974
  L 189.677419 580.000000
  L 192.903226 528.717949
  L 196.129032 555.186104
  L 199.354839 552.527473
  L 202.580645 536.043956
  L 205.806452 580.000000
  L 209.032258 510.069930
  L 212.258065 515.897436
  L 215.483871 580.000000
  L 218.709677 580.000000
  L 221.935484 514.065934
  L 225.161290 562.517483
  L 228.387097 522.307692
  L 231.612903 514.065934
  L 234.838710 558.632479
  L 238.064516 526.949602
  L 241.290323 552.527473
  L 244.516129 538.419958
  L 247.741935 483.846154
  L 250.967742 559.757085
  L 254.193548 536.043956
  L 257.419355 557.375566
  L 260.645161 483.846154
  L 263.870968 534.751131
  L 267.096774 533.379953
  L 270.322581 515.897436
  L 273.548387 529.832776
  L 276.774194 538.419958
  L 280.000000 530.372208
  L 283.225806 510.069930
  L 286.451613 520.828402
  L 289.677419 526.949602
  L 292.903226 494.529915
  L 296.129032 525.054945
  L 299.354839 560.769231
  L 302.580645 553.474801
  L 305.806452 547.948718
  L 309.032258 492.087912
  L 312.258065 558.021978
  L 315.483871 538.419958
  L 318.709677 580.000000
  L 321.935484 549.230769
  L 325.161290 526.949602
  L 328.387097 542.476548
  L 331.612903 541.538462
  L 334.838710 523.019943
  L 338.064516 500.424403
  L 341.290323 550.414201
  L 344.516129 536.043956
  L 347.741935 520.828402
  L 350.967742 555.186104
  L 354.193548 558.632479
  L 357.419355 557.375566
  L 360.645161 528.717949
  L 363.870968 515.897436
  L 367.096774 554.358974
  L 370.322581 503.076923
  L 373.548387 580.000000
  L 376.774194 580.000000
  L 380.000000 580.000000
  L 383.225806 558.632479
  L 386.451613 483.846154
  L 389.677419 518.461538
  L 392.903226 537.264957
  L 396.129032 551.509972
  L 399.354839 513.110368
  L 402.580645 580.000000
  L 405.806452 525.054945
  L 409.032258 580.000000
  L 412.258065 580.000000
  L 415.483871 547.948718
  L 418.709677 537.264957
  L 421.935484 525.054945
  L 425.161290 580.000000
  L 428.387097 580.000000
  L 431.612903 554.358974
  L 434.838710 580.000000
  L 438.064516 554.358974
  L 441.290323 487.692308
  L 444.516129 555.186104
  L 447.741935 558.021978
  L 450.967742 580.000000
  L 454.193548 510.069930
  L 457.419355 447.374005
  L 460.645161 545.034965
  L 463.870968 487.692308
  L 467.096774 515.897436
  L 470.322581 470.109890
  L 473.548387 518.461538
  L 476.774194 550.414201
  L 480.000000 553.474801
  L 483.225806 554.358974
  L 486.451613 580.000000
  L 489.677419 547.948718
  L 492.903226 547.948718
  L 496.129032 580.000000
  L 499.354839 580.000000
  L 502.580645 459.807692
  L 505.806452 475.104895
  L 509.032258 547.948718
  L 512.258065 580.000000
  L 515.483871 580.000000
  L 518.709677 541.538462
  L 521.935484 549.230769
  L 525.161290 500.424403
  L 528.387097 510.069930
  L 531.612903 580.000000
  L 534.838710 526.949602
  L 538.064516 506.739927
  L 541.290323 547.948718
  L 544.516129 580.000000
  L 547.741935 580.000000
  L 550.967742 539.514170
  L 554.193548 545.034965
  L 557.419355 580.000000
  L 560.645161 580.000000
  L 563.870968 537.264957
  L 567.096774 580.000000
" stroke="rgb(248,118,109)" stroke-width="2" fill-opacity="0"/>
<path d="M 83.225806 580.000000
  L 86.451613 543.369963
  L 89.677419 553.474801
  L 92.903226 520.828402
  L 96.129032 580.000000
  L 99.354839 562.110912
  L 102.580645 505.558313
  L 105.806452 558.021978
  L 109.032258 552.527473
  L 112.258065 580.000000
  L 115.483871 580.000000
  L 118.709677 514.065934
  L 121.935484 556.689977
  L 125.161290 580.000000
  L 128.387097 534.751131
  L 131.612903 506.739927
  L 134.838710 533.379953
  L 138.064516 530.900164
  L 141.290323 580.000000
  L 144.516129 580.000000
  L 147.741935 514.065934
  L 150.967742 580.000000
  L 154.193548 561.684982
  L 157.419355 580.000000
  L 160.645161 520.828402
  L 163.870968 560.769231
  L 167.096774 580.000000
  L 170.322581 559.209979
  L 173.548387 433.479853
  L 176.774194 549.230769
  L 180.000000 554.358974
  L 183.225806 558.632479
  L 186.451613 551.509972
  L 189.677419 580.000000
  L 192.903226 507.884615
  L 196.129032 541.538462
  L 199.354839 550.414201
  L 202.580645 525.054945
  L 205.806452 560.769231
  L 209.032258 513.110368
  L 212.258065 558.021978
  L 215.483871 523.714822
  L 218.709677 580.000000
  L 221.935484 512.126697
  L 225.161290 525.054945
  L 228.387097 525.054945
  L 231.612903 580.000000
  L 234.838710 561.684982
  L 238.064516 515.897436
  L 241.290323 534.751131
  L 244.516129 531.923077
  L 247.741935 538.419958
  L 250.967742 558.021978
  L 254.193548 534.751131
  L 257.419355 531.923077
  L 260.645161 512.126697
  L 263.870968 580.000000
  L 267.096774 533.379953
  L 270.322581 510.069930
  L 273.548387 518.461538
  L 276.774194 530.372208
  L 280.000000 534.751131
  L 283.225806 510.069930
  L 286.451613 483.846154
  L 289.677419 503.076923
  L 292.903226 533.379953
  L 296.129032 533.379953
  L 299.354839 558.632479
  L 302.580645 558.632479
  L 305.806452 549.230769
  L 309.032258 539.514170
  L 312.258065 531.923077
  L 315.483871 560.769231
  L 318.709677 559.209979
  L 321.935484 549.230769
  L 325.161290 466.039886
  L 328.387097 553.474801
  L 331.612903 531.923077
  L 334.838710 470.109890
  L 338.064516 555.961538
  L 341.290323 515.897436
  L 344.516129 559.757085
  L 347.741935 556.689977
  L 350.967742 522.307692
  L 354.193548 560.769231
  L 357.419355 559.209979
  L 360.645161 580.000000
  L 363.870968 510.069930
  L 367.096774 526.949602
  L 370.322581 463.449883
  L 373.548387 557.375566
  L 376.774194 518.461538
  L 380.000000 558.021978
  L 383.225806 559.757085
  L 386.451613 553.474801
  L 389.677419 537.264957
  L 392.903226 555.186104
  L 396.129032 536.043956
  L 399.354839 556.689977
  L 402.580645 519.271255
  L 405.806452 546.555184
  L 409.032258 525.054945
  L 412.258065 547.948718
  L 415.483871 500.424403
  L 418.709677 514.065934
  L 421.935484 497.582418
  L 425.161290 520.828402
  L 428.387097 554.358974
  L 431.612903 580.000000
  L 434.838710 520.828402
  L 438.064516 580.000000
  L 441.290323 456.923077
  L 444.516129 541.538462
  L 447.741935 483.846154
  L 450.967742 580.000000
  L 454.193548 440.139860
  L 457.419355 547.948718
  L 460.645161 549.230769
  L 463.870968 557.375566
  L 467.096774 520.828402
  L 470.322581 580.000000
  L 473.548387 503.076923
  L 476.774194 555.961538
  L 480.000000 550.414201
  L 483.225806 526.949602
  L 486.451613 534.751131
  L 489.677419 547.948718
  L 492.903226 549.230769
  L 496.129032 555.961538
  L 499.354839 546.555184
  L 502.580645 513.110368
  L 505.806452 533.379953
  L 509.032258 541.538462
  L 512.258065 551.509972
  L 515.483871 580.000000
  L 518.709677 580.000000
  L 521.935484 580.000000
  L 525.161290 491.242604
  L 528.387097 554.358974
  L 531.612903 550.414201
  L 534.838710 534.751131
  L 538.064516 528.717949
  L 541.290323 580.000000
  L 544.516129 515.897436
  L 547.741935 580.000000
  L 550.967742 554.358974
  L 554.193548 539.514170
  L 557.419355 543.369963
  L 560.645161 580.000000
  L 563.870968 526.949602
  L 567.096774 510.069930
" stroke="rgb(0,191,196)" stroke-width="2" fill-opacity="0"/>
<rect x="590" y="310" width="20" height="20" fill="rgb(248,118,109)" />
<text x="615" y="320" text-anchor="start" dominant-baseline="middle">#1</text>
<rect x="590" y="330" width="20" height="20" fill="rgb(0,191,196)" />
<text x="615" y="340" text-anchor="start" dominant-baseline="middle">#2</text>
</svg>
